<?xml version="1.0" encoding="UTF-8" standalone="no"?>
<!DOCTYPE svg PUBLIC "-//W3C//DTD SVG 20010904//EN"
"http://www.w3.org/TR/2001/REC-SVG-20010904/DTD/svg10.dtd">
<!-- Created with Sodipodi ("http://www.sodipodi.com/") -->
<svg
   id="svg548"
   sodipodi:version="0.33"
   width="400pt"
   height="400pt"
   sodipodi:docbase="/var/www/html/svg_gallery/svg/office/"
   sodipodi:docname="/var/www/html/svg_gallery/svg/office/calculator.svg"
   xmlns="http://www.w3.org/2000/svg"
   xmlns:sodipodi="http://sodipodi.sourceforge.net/DTD/sodipodi-0.dtd"
   xmlns:xlink="http://www.w3.org/1999/xlink">
  <defs
     id="defs550" />
  <sodipodi:namedview
     id="base"
     showgrid="true" />
  <path
     style="fill:#797b90;fill-rule:evenodd;stroke:#000000;stroke-opacity:1;stroke-width:3.75;stroke-linejoin:miter;stroke-linecap:butt;fill-opacity:1;stroke-dasharray:none;"
     d="M 33.75 58.75 L 458.75 58.75 L 461.25 376.25 L 35 376.25 L 33.75 58.75 z "
     id="path597"
     transform="translate(8.750000,30.00000)"
     sodipodi:nodetypes="ccccc" />
  <path
     style="fill:#acb0b4;fill-rule:evenodd;stroke:black;stroke-opacity:1;stroke-width:3.75;stroke-linejoin:miter;stroke-linecap:butt;fill-opacity:1;stroke-dasharray:none;"
     d="M 210 76.25 L 442.5 77.5 L 442.5 136.25 L 210 136.25 L 210 76.25 z "
     id="path598"
     sodipodi:nodetypes="ccccc"
     transform="translate(6.250000,25.00000)" />
  <path
     style="fill:#acc5b4;fill-rule:evenodd;stroke:black;stroke-opacity:1;stroke-width:3.75;stroke-linejoin:miter;stroke-linecap:butt;fill-opacity:1;stroke-dasharray:none;"
     d="M 220 85 L 433.75 85 L 433.75 127.5 L 220 127.5 L 220 85 z "
     id="path599"
     sodipodi:nodetypes="ccccc"
     transform="translate(6.250000,25.00000)" />
  <path
     style="fill:#a8a8a8;fill-rule:evenodd;stroke:black;stroke-opacity:1;stroke-width:4.06302;stroke-linejoin:miter;stroke-linecap:butt;fill-opacity:1;stroke-dasharray:none;"
     d="M 53.75 147.5 L 88.75 147.5 L 88.75 181.25 L 53.75 181.25 L 53.75 147.5 z "
     id="path600"
     sodipodi:nodetypes="ccccc"
     transform="matrix(1.000000,0.000000,0.000000,0.851852,25.00000,63.10184)" />
  <path
     style="fill:#a8a8a8;fill-rule:evenodd;stroke:black;stroke-opacity:1;stroke-width:4.06302;stroke-linejoin:miter;stroke-linecap:butt;fill-opacity:1;stroke-dasharray:none;"
     d="M 53.75 147.5 L 88.75 147.5 L 88.75 181.25 L 53.75 181.25 L 53.75 147.5 z "
     id="path601"
     sodipodi:nodetypes="ccccc"
     transform="matrix(1.000000,0.000000,0.000000,0.851852,76.25000,63.10184)" />
  <path
     style="fill:#a8a8a8;fill-rule:evenodd;stroke:black;stroke-opacity:1;stroke-width:4.06302;stroke-linejoin:miter;stroke-linecap:butt;fill-opacity:1;stroke-dasharray:none;"
     d="M 53.75 147.5 L 88.75 147.5 L 88.75 181.25 L 53.75 181.25 L 53.75 147.5 z "
     id="path602"
     sodipodi:nodetypes="ccccc"
     transform="matrix(1.000000,0.000000,0.000000,0.851852,127.5000,64.35184)" />
  <path
     style="fill:#a8a8a8;fill-rule:evenodd;stroke:black;stroke-opacity:1;stroke-width:4.06302;stroke-linejoin:miter;stroke-linecap:butt;fill-opacity:1;stroke-dasharray:none;"
     d="M 53.75 147.5 L 88.75 147.5 L 88.75 181.25 L 53.75 181.25 L 53.75 147.5 z "
     id="path603"
     sodipodi:nodetypes="ccccc"
     transform="matrix(1.000000,0.000000,0.000000,0.851852,183.7500,64.35184)" />
  <path
     style="fill:#a8a8a8;fill-rule:evenodd;stroke:black;stroke-opacity:1;stroke-width:4.06302;stroke-linejoin:miter;stroke-linecap:butt;fill-opacity:1;stroke-dasharray:none;"
     d="M 53.75 147.5 L 88.75 147.5 L 88.75 181.25 L 53.75 181.25 L 53.75 147.5 z "
     id="path604"
     sodipodi:nodetypes="ccccc"
     transform="matrix(1.000000,0.000000,0.000000,0.851852,237.5000,63.10184)" />
  <path
     style="fill:#a8a8a8;fill-rule:evenodd;stroke:black;stroke-opacity:1;stroke-width:4.06302;stroke-linejoin:miter;stroke-linecap:butt;fill-opacity:1;stroke-dasharray:none;"
     d="M 53.75 147.5 L 88.75 147.5 L 88.75 181.25 L 53.75 181.25 L 53.75 147.5 z "
     id="path605"
     sodipodi:nodetypes="ccccc"
     transform="matrix(1.000000,0.000000,0.000000,0.851852,291.2500,64.35184)" />
  <path
     style="fill:#a8a8a8;fill-rule:evenodd;stroke:black;stroke-opacity:1;stroke-width:4.06302;stroke-linejoin:miter;stroke-linecap:butt;fill-opacity:1;stroke-dasharray:none;"
     d="M 53.75 147.5 L 88.75 147.5 L 88.75 181.25 L 53.75 181.25 L 53.75 147.5 z "
     id="path606"
     sodipodi:nodetypes="ccccc"
     transform="matrix(1.000000,0.000000,0.000000,0.851852,343.7500,63.10184)" />
  <path
     style="fill:#a8a8a8;fill-rule:evenodd;stroke:black;stroke-opacity:1;stroke-width:4.06302;stroke-linejoin:miter;stroke-linecap:butt;fill-opacity:1;stroke-dasharray:none;"
     d="M 53.75 147.5 L 88.75 147.5 L 88.75 181.25 L 53.75 181.25 L 53.75 147.5 z "
     id="path607"
     sodipodi:nodetypes="ccccc"
     transform="matrix(1.000000,0.000000,0.000000,0.851852,25.00000,116.8518)" />
  <path
     style="fill:#a8a8a8;fill-rule:evenodd;stroke:black;stroke-opacity:1;stroke-width:4.06302;stroke-linejoin:miter;stroke-linecap:butt;fill-opacity:1;stroke-dasharray:none;"
     d="M 53.75 147.5 L 88.75 147.5 L 88.75 181.25 L 53.75 181.25 L 53.75 147.5 z "
     id="path608"
     sodipodi:nodetypes="ccccc"
     transform="matrix(1.000000,0.000000,0.000000,0.851852,76.25000,116.8518)" />
  <path
     style="fill:#a8a8a8;fill-rule:evenodd;stroke:black;stroke-opacity:1;stroke-width:4.06302;stroke-linejoin:miter;stroke-linecap:butt;fill-opacity:1;stroke-dasharray:none;"
     d="M 53.75 147.5 L 88.75 147.5 L 88.75 181.25 L 53.75 181.25 L 53.75 147.5 z "
     id="path609"
     sodipodi:nodetypes="ccccc"
     transform="matrix(1.000000,0.000000,0.000000,0.851852,127.5000,118.1018)" />
  <path
     style="fill:#a8a8a8;fill-rule:evenodd;stroke:black;stroke-opacity:1;stroke-width:4.06302;stroke-linejoin:miter;stroke-linecap:butt;fill-opacity:1;stroke-dasharray:none;"
     d="M 53.75 147.5 L 88.75 147.5 L 88.75 181.25 L 53.75 181.25 L 53.75 147.5 z "
     id="path610"
     sodipodi:nodetypes="ccccc"
     transform="matrix(1.000000,0.000000,0.000000,0.851852,183.7500,118.1018)" />
  <path
     style="fill:#a8a8a8;fill-rule:evenodd;stroke:black;stroke-opacity:1;stroke-width:4.06302;stroke-linejoin:miter;stroke-linecap:butt;fill-opacity:1;stroke-dasharray:none;"
     d="M 53.75 147.5 L 88.75 147.5 L 88.75 181.25 L 53.75 181.25 L 53.75 147.5 z "
     id="path611"
     sodipodi:nodetypes="ccccc"
     transform="matrix(1.000000,0.000000,0.000000,0.851852,237.5000,116.8518)" />
  <path
     style="fill:#a8a8a8;fill-rule:evenodd;stroke:black;stroke-opacity:1;stroke-width:4.06302;stroke-linejoin:miter;stroke-linecap:butt;fill-opacity:1;stroke-dasharray:none;"
     d="M 53.75 147.5 L 88.75 147.5 L 88.75 181.25 L 53.75 181.25 L 53.75 147.5 z "
     id="path612"
     sodipodi:nodetypes="ccccc"
     transform="matrix(1.000000,0.000000,0.000000,0.851852,291.2500,118.1018)" />
  <path
     style="fill:#a8a8a8;fill-rule:evenodd;stroke:black;stroke-opacity:1;stroke-width:4.06302;stroke-linejoin:miter;stroke-linecap:butt;fill-opacity:1;stroke-dasharray:none;"
     d="M 53.75 147.5 L 88.75 147.5 L 88.75 181.25 L 53.75 181.25 L 53.75 147.5 z "
     id="path613"
     sodipodi:nodetypes="ccccc"
     transform="matrix(1.000000,0.000000,0.000000,0.851852,343.7500,116.8518)" />
  <path
     style="fill:#a8a8a8;fill-rule:evenodd;stroke:black;stroke-opacity:1;stroke-width:4.06302;stroke-linejoin:miter;stroke-linecap:butt;fill-opacity:1;stroke-dasharray:none;"
     d="M 53.75 147.5 L 88.75 147.5 L 88.75 181.25 L 53.75 181.25 L 53.75 147.5 z "
     id="path614"
     sodipodi:nodetypes="ccccc"
     transform="matrix(1.000000,0.000000,0.000000,0.851852,25.00000,170.6018)" />
  <path
     style="fill:#a8a8a8;fill-rule:evenodd;stroke:black;stroke-opacity:1;stroke-width:4.06302;stroke-linejoin:miter;stroke-linecap:butt;fill-opacity:1;stroke-dasharray:none;"
     d="M 53.75 147.5 L 88.75 147.5 L 88.75 181.25 L 53.75 181.25 L 53.75 147.5 z "
     id="path615"
     sodipodi:nodetypes="ccccc"
     transform="matrix(1.000000,0.000000,0.000000,0.851852,76.25000,170.6018)" />
  <path
     style="fill:#a8a8a8;fill-rule:evenodd;stroke:black;stroke-opacity:1;stroke-width:4.06302;stroke-linejoin:miter;stroke-linecap:butt;fill-opacity:1;stroke-dasharray:none;"
     d="M 53.75 147.5 L 88.75 147.5 L 88.75 181.25 L 53.75 181.25 L 53.75 147.5 z "
     id="path616"
     sodipodi:nodetypes="ccccc"
     transform="matrix(1.000000,0.000000,0.000000,0.851852,127.5000,171.8518)" />
  <path
     style="fill:#a8a8a8;fill-rule:evenodd;stroke:black;stroke-opacity:1;stroke-width:4.06302;stroke-linejoin:miter;stroke-linecap:butt;fill-opacity:1;stroke-dasharray:none;"
     d="M 53.75 147.5 L 88.75 147.5 L 88.75 181.25 L 53.75 181.25 L 53.75 147.5 z "
     id="path617"
     sodipodi:nodetypes="ccccc"
     transform="matrix(1.000000,0.000000,0.000000,0.851852,183.7500,171.8518)" />
  <path
     style="fill:#a8a8a8;fill-rule:evenodd;stroke:black;stroke-opacity:1;stroke-width:4.06302;stroke-linejoin:miter;stroke-linecap:butt;fill-opacity:1;stroke-dasharray:none;"
     d="M 53.75 147.5 L 88.75 147.5 L 88.75 181.25 L 53.75 181.25 L 53.75 147.5 z "
     id="path618"
     sodipodi:nodetypes="ccccc"
     transform="matrix(1.000000,0.000000,0.000000,0.851852,237.5000,170.6018)" />
  <path
     style="fill:#a8a8a8;fill-rule:evenodd;stroke:black;stroke-opacity:1;stroke-width:4.06302;stroke-linejoin:miter;stroke-linecap:butt;fill-opacity:1;stroke-dasharray:none;"
     d="M 53.75 147.5 L 88.75 147.5 L 88.75 181.25 L 53.75 181.25 L 53.75 147.5 z "
     id="path619"
     sodipodi:nodetypes="ccccc"
     transform="matrix(1.000000,0.000000,0.000000,0.851852,291.2500,171.8518)" />
  <path
     style="fill:#a8a8a8;fill-rule:evenodd;stroke:black;stroke-opacity:1;stroke-width:4.06302;stroke-linejoin:miter;stroke-linecap:butt;fill-opacity:1;stroke-dasharray:none;"
     d="M 53.75 147.5 L 88.75 147.5 L 88.75 181.25 L 53.75 181.25 L 53.75 147.5 z "
     id="path620"
     sodipodi:nodetypes="ccccc"
     transform="matrix(1.000000,0.000000,0.000000,0.851852,343.7500,170.6018)" />
  <path
     style="fill:#a8a8a8;fill-rule:evenodd;stroke:black;stroke-opacity:1;stroke-width:4.06302;stroke-linejoin:miter;stroke-linecap:butt;fill-opacity:1;stroke-dasharray:none;"
     d="M 53.75 147.5 L 88.75 147.5 L 88.75 181.25 L 53.75 181.25 L 53.75 147.5 z "
     id="path621"
     sodipodi:nodetypes="ccccc"
     transform="matrix(1.000000,0.000000,0.000000,0.851852,25.00000,221.8518)" />
  <path
     style="fill:#a8a8a8;fill-rule:evenodd;stroke:black;stroke-opacity:1;stroke-width:4.06302;stroke-linejoin:miter;stroke-linecap:butt;fill-opacity:1;stroke-dasharray:none;"
     d="M 53.75 147.5 L 88.75 147.5 L 88.75 181.25 L 53.75 181.25 L 53.75 147.5 z "
     id="path622"
     sodipodi:nodetypes="ccccc"
     transform="matrix(1.000000,0.000000,0.000000,0.851852,76.25000,221.8518)" />
  <path
     style="fill:#a8a8a8;fill-rule:evenodd;stroke:black;stroke-opacity:1;stroke-width:4.06302;stroke-linejoin:miter;stroke-linecap:butt;fill-opacity:1;stroke-dasharray:none;"
     d="M 53.75 147.5 L 88.75 147.5 L 88.75 181.25 L 53.75 181.25 L 53.75 147.5 z "
     id="path623"
     sodipodi:nodetypes="ccccc"
     transform="matrix(1.000000,0.000000,0.000000,0.851852,127.5000,223.1018)" />
  <path
     style="fill:#a8a8a8;fill-rule:evenodd;stroke:black;stroke-opacity:1;stroke-width:4.06302;stroke-linejoin:miter;stroke-linecap:butt;fill-opacity:1;stroke-dasharray:none;"
     d="M 53.75 147.5 L 88.75 147.5 L 88.75 181.25 L 53.75 181.25 L 53.75 147.5 z "
     id="path624"
     sodipodi:nodetypes="ccccc"
     transform="matrix(1.000000,0.000000,0.000000,0.851852,183.7500,223.1018)" />
  <path
     style="fill:#a8a8a8;fill-rule:evenodd;stroke:black;stroke-opacity:1;stroke-width:4.06302;stroke-linejoin:miter;stroke-linecap:butt;fill-opacity:1;stroke-dasharray:none;"
     d="M 53.75 147.5 L 88.75 147.5 L 88.75 181.25 L 53.75 181.25 L 53.75 147.5 z "
     id="path625"
     sodipodi:nodetypes="ccccc"
     transform="matrix(1.000000,0.000000,0.000000,0.851852,237.5000,221.8518)" />
  <path
     style="fill:#a8a8a8;fill-rule:evenodd;stroke:black;stroke-opacity:1;stroke-width:4.06302;stroke-linejoin:miter;stroke-linecap:butt;fill-opacity:1;stroke-dasharray:none;"
     d="M 53.75 147.5 L 88.75 147.5 L 88.75 181.25 L 53.75 181.25 L 53.75 147.5 z "
     id="path626"
     sodipodi:nodetypes="ccccc"
     transform="matrix(1.000000,0.000000,0.000000,0.851852,291.2500,223.1018)" />
  <path
     style="fill:#a8a8a8;fill-rule:evenodd;stroke:black;stroke-opacity:1;stroke-width:4.06302;stroke-linejoin:miter;stroke-linecap:butt;fill-opacity:1;stroke-dasharray:none;"
     d="M 53.75 147.5 L 88.75 147.5 L 88.75 181.25 L 53.75 181.25 L 53.75 147.5 z "
     id="path627"
     sodipodi:nodetypes="ccccc"
     transform="matrix(1.000000,0.000000,0.000000,0.851852,343.7500,221.8518)" />
  <path
     style="fill:none;fill-rule:evenodd;stroke:black;stroke-opacity:1;stroke-width:3.75;stroke-linejoin:miter;stroke-linecap:butt;fill-opacity:1;stroke-dasharray:none;"
     d="M 423.75 116.25 L 425 140 "
     id="path628" />
  <path
     style="fill:none;fill-rule:evenodd;stroke:black;stroke-opacity:1;stroke-width:3.75;stroke-linejoin:miter;stroke-linecap:butt;fill-opacity:1;stroke-dasharray:none;"
     d="M 407.5 126.25 L 392.5 126.25 L 392.5 116.25 L 408.75 116.25 L 410 140 L 410 140 L 410 140 "
     id="path629" />
  <path
     style="fill:none;fill-rule:evenodd;stroke:black;stroke-opacity:1;stroke-width:3.75;stroke-linejoin:miter;stroke-linecap:butt;fill-opacity:1;stroke-dasharray:none;"
     d="M 385 137.5 L 390 137.5 "
     id="path630" />
  <path
     style="fill:none;fill-rule:evenodd;stroke:black;stroke-opacity:1;stroke-width:3.75;stroke-linejoin:miter;stroke-linecap:butt;fill-opacity:1;stroke-dasharray:none;"
     d="M 353.75 117.5 L 371.25 117.5 L 371.25 127.5 L 356.25 127.5 C 356.25 127.5 357.5 140 356.25 140 C 355 140 372.5 140 372.5 140 "
     id="path631"
     sodipodi:nodetypes="cccccc" />
  <path
     style="fill:none;fill-rule:evenodd;stroke:black;stroke-opacity:1;stroke-width:3.75;stroke-linejoin:miter;stroke-linecap:butt;fill-opacity:1;stroke-dasharray:none;"
     d="M 317.5 116.25 L 317.5 128.75 L 336.25 130 L 336.25 143.75 "
     id="path632" />
  <path
     style="fill:none;fill-rule:evenodd;stroke:#ffffff;stroke-opacity:1;stroke-width:3.75;stroke-linejoin:miter;stroke-linecap:butt;fill-opacity:1;stroke-dasharray:none;"
     d="M 61.25 112.5 L 138.75 113.75 "
     id="path633" />
  <path
     style="fill:none;fill-rule:evenodd;stroke:#ffffff;stroke-opacity:1;stroke-width:3.75;stroke-linejoin:miter;stroke-linecap:butt;fill-opacity:1;stroke-dasharray:none;"
     d="M 58.75 133.75 L 137.5 135 "
     id="path634" />
  <path
     style="fill:#ffffff;fill-rule:evenodd;stroke:none;stroke-opacity:1;stroke-width:1pt;stroke-linejoin:miter;stroke-linecap:butt;fill-opacity:0.5000;"
     d="M 49.05063 270.5696 C 50.63291 264.2405 37.97469 121.8355 53.79747 93.35445 C 82.27848 90.18990 181.9621 91.77216 205.6962 96.51897 C 151.8988 99.68353 53.79746 55.37971 49.05063 270.5696 z "
     id="path701"
     sodipodi:nodetypes="cccc" />
</svg>
