<?xml version="1.0" encoding="UTF-8" standalone="no"?>
<!DOCTYPE svg PUBLIC "-//W3C//DTD SVG 20010904//EN"
"http://www.w3.org/TR/2001/REC-SVG-20010904/DTD/svg10.dtd">
<!-- Created with Sodipodi ("http://www.sodipodi.com/") -->
<svg
   id="svg548"
   sodipodi:version="0.32"
   width="400pt"
   height="400pt"
   sodipodi:docbase="/home/nicu/svg_gal/office"
   sodipodi:docname="/home/nicu/svg_gal/office/stappler.svg"
   xmlns="http://www.w3.org/2000/svg"
   xmlns:sodipodi="http://sodipodi.sourceforge.net/DTD/sodipodi-0.dtd"
   xmlns:xlink="http://www.w3.org/1999/xlink">
  <defs
     id="defs550" />
  <sodipodi:namedview
     id="base"
     showgrid="true" />
  <path
     style="fill:#ff0000;fill-rule:evenodd;stroke:black;stroke-opacity:1;stroke-width:3.15049;stroke-linejoin:bevel;stroke-linecap:butt;fill-opacity:1;stroke-dasharray:none;"
     d="M 296.985 150.866 L 99.8788 376.256 L 254.558 375.372 L 344.715 151.749 L 296.985 150.866 z "
     id="path606"
     sodipodi:nodetypes="ccccc"
     transform="matrix(1.244945,0.000000,0.000000,1.138040,-24.91827,-67.18498)" />
  <path
     style="fill:#ff0000;fill-rule:evenodd;stroke:black;stroke-opacity:1;stroke-width:3.15049;stroke-linejoin:bevel;stroke-linecap:butt;fill-opacity:1;stroke-dasharray:none;"
     d="M 98.995 376.256 C 98.995 376.256 84.8528 391.283 81.3173 411.612 L 266.049 414.263 L 351.786 157.937 C 351.786 157.937 350.018 153.518 344.715 152.634 C 342.063 157.937 254.558 376.256 254.558 376.256 L 98.995 376.256 z "
     id="path607"
     sodipodi:nodetypes="ccccccc"
     transform="matrix(1.244945,0.000000,0.000000,1.138040,-24.91827,-67.18498)" />
  <path
     style="fill:#bfbfbf;fill-rule:evenodd;stroke:#000000;stroke-opacity:1;stroke-width:3.15049;stroke-linejoin:bevel;stroke-linecap:butt;fill-opacity:1;stroke-dasharray:none;"
     d="M 112.101 370.953 L 152.394 323.223 L 269.584 323.223 L 250.139 370.953 L 112.101 370.953 z "
     id="path608"
     sodipodi:nodetypes="ccccc"
     transform="matrix(1.244945,0.000000,0.000000,1.138040,-24.91827,-67.18498)" />
  <path
     style="fill:#ff0000;fill-rule:evenodd;stroke:black;stroke-opacity:1;stroke-width:3.15049;stroke-linejoin:bevel;stroke-linecap:butt;fill-opacity:1;stroke-dasharray:none;"
     d="M 331.456 160.589 L 213.9 310.849 L 213.016 223.344 L 325.269 139.376 C 325.269 139.376 337.644 131.421 331.456 160.589 z "
     id="path609"
     transform="matrix(1.244945,0.000000,0.000000,1.138040,-24.91827,-67.18498)" />
  <path
     style="fill:#ff0000;fill-rule:evenodd;stroke:#000000;stroke-opacity:1;stroke-width:3.15049;stroke-linejoin:bevel;stroke-linecap:butt;fill-opacity:1;stroke-dasharray:none;"
     d="M 212.132 223.344 L 101.646 224.228 L 279.307 135.84 C 279.307 135.84 318.198 129.653 328.805 137.608 C 327.921 134.957 212.132 225.112 212.132 223.344 z "
     id="path610"
     sodipodi:nodetypes="ccccc"
     transform="matrix(1.244945,0.000000,0.000000,1.138040,-24.91827,-67.18498)" />
  <path
     style="fill:none;fill-rule:evenodd;stroke:black;stroke-opacity:1;stroke-width:3.15049;stroke-linejoin:bevel;stroke-linecap:butt;fill-opacity:1;stroke-dasharray:none;"
     d="M 213.9 310.849 L 101.647 309.081 L 101.646 224.229 L 212.132 224.228 L 213.9 310.849 z "
     id="path611"
     sodipodi:nodetypes="ccccc"
     transform="matrix(1.244945,0.000000,0.000000,1.138040,-24.91827,-67.18498)" />
  <path
     style="fill:#bfbfbf;fill-rule:evenodd;stroke:black;stroke-opacity:1;stroke-width:3.15049;stroke-linejoin:bevel;stroke-linecap:butt;fill-opacity:1;stroke-dasharray:none;"
     d="M 106.066 309.081 L 106.066 329.41 L 205.945 329.411 L 287.262 218.041 C 287.262 218.041 214.784 309.965 213.9 309.965 C 213.016 309.965 106.066 310.849 106.066 309.081 z "
     id="path612"
     sodipodi:nodetypes="cccccc"
     transform="matrix(1.244945,0.000000,0.000000,1.138040,-24.91827,-67.18498)" />
  <path
     style="fill:none;fill-rule:evenodd;stroke:black;stroke-opacity:1;stroke-width:3.15049;stroke-linejoin:bevel;stroke-linecap:butt;fill-opacity:1;stroke-dasharray:none;"
     d="M 304.94 194.176 L 305.824 218.925 L 331.456 171.195 L 329.689 161.473 L 304.94 194.176 z "
     id="path613"
     transform="matrix(1.244945,0.000000,0.000000,1.138040,-24.91827,-67.18498)" />
  <path
     style="fill:#790000;fill-rule:evenodd;stroke:black;stroke-opacity:1;stroke-width:3.15049;stroke-linejoin:bevel;stroke-linecap:butt;fill-opacity:1;stroke-dasharray:none;"
     d="M 305.955 219.056 L 297.869 218.925 L 297.869 202.131 L 304.94 194.176 L 305.955 219.056 z "
     id="path614"
     sodipodi:nodetypes="ccccc"
     transform="matrix(1.244945,0.000000,0.000000,1.138040,-24.91827,-67.18498)" />
  <path
     style="fill:#ff0000;fill-rule:evenodd;stroke:black;stroke-opacity:1;stroke-width:3.15049;stroke-linejoin:bevel;stroke-linecap:butt;fill-opacity:1;stroke-dasharray:none;"
     d="M 94.774 308.613 L 212.709 310.136 L 234.03 284.245 C 234.03 284.245 253.321 225.357 256.875 221.803 C 258.652 220.026 266.625 202.533 267.091 202.449 C 267.73 202.242 269.058 181.698 269.058 181.698 C 263.474 180.683 183.576 175.683 183.576 176.191 C 183.576 176.698 95.282 219.342 95.282 219.342 L 94.774 308.613 z "
     id="path615"
     sodipodi:nodetypes="ccccscccc"
     transform="matrix(1.244945,0.000000,0.000000,1.138040,-24.91827,-67.18498)" />
  <path
     style="fill:none;fill-rule:evenodd;stroke:black;stroke-opacity:1;stroke-width:3.15049;stroke-linejoin:bevel;stroke-linecap:butt;fill-opacity:1;stroke-dasharray:none;"
     d="M 135.545 357.855 C 141.637 358.363 164.989 359.379 169.05 358.871 C 178.188 355.825 127.422 352.271 135.545 357.855 z "
     id="path616"
     sodipodi:nodetypes="ccc"
     transform="matrix(1.244945,0.000000,0.000000,1.138040,-10.38213,-66.02951)" />
  <path
     style="fill:none;fill-rule:evenodd;stroke:black;stroke-opacity:1;stroke-width:3.15049;stroke-linejoin:bevel;stroke-linecap:butt;fill-opacity:1;stroke-dasharray:none;"
     d="M 135.545 357.855 C 141.637 358.363 164.989 359.379 169.05 358.871 C 178.188 355.825 127.422 352.271 135.545 357.855 z "
     id="path617"
     sodipodi:nodetypes="ccc"
     transform="matrix(1.244945,0.000000,0.000000,1.138040,49.02645,-66.60725)" />
  <path
     style="fill:none;fill-rule:evenodd;stroke:black;stroke-opacity:1;stroke-width:3.75;stroke-linejoin:miter;stroke-linecap:butt;fill-opacity:1;stroke-dasharray:none;"
     d="M 156.971 286.089 L 156.971 306.095 L 168.512 306.864 L 168.513 285.319 L 156.971 286.089 z "
     id="path618"
     sodipodi:nodetypes="ccccc" />
  <path
     style="fill:none;fill-rule:evenodd;stroke:black;stroke-opacity:1;stroke-width:1pt;stroke-linejoin:miter;stroke-linecap:butt;fill-opacity:1;"
     d="M 106.956 185.289 C 106.956 185.289 237.765 188.367 237.765 187.597 C 237.765 186.828 299.322 149.124 299.322 149.124 "
     id="path620"
     sodipodi:nodetypes="ccc" />
  <path
     style="fill:none;fill-rule:evenodd;stroke:black;stroke-opacity:1;stroke-width:1pt;stroke-linejoin:miter;stroke-linecap:butt;fill-opacity:1;"
     d="M 237.765 187.597 L 238.534 276.855 "
     id="path621"
     sodipodi:nodetypes="cc" />
  <path
     style="fill:#ffffff;fill-rule:evenodd;stroke:none;stroke-opacity:1;stroke-width:1pt;stroke-linejoin:miter;stroke-linecap:butt;fill-opacity:0.5;"
     d="M 207.756 182.98 C 189.289 184.519 122.345 182.98 107.725 180.671 C 118.498 176.825 168.513 152.971 178.516 153.741 C 150.045 168.36 182.363 179.902 207.756 182.98 z "
     id="path622"
     sodipodi:nodetypes="cccc" />
  <path
     style="fill:#ffffff;fill-rule:evenodd;stroke:none;stroke-opacity:1;stroke-width:1pt;stroke-linejoin:miter;stroke-linecap:butt;fill-opacity:0.498039;"
     d="M 287.78 107.573 C 287.78 107.573 248.538 126.809 238.535 130.656 C 261.619 129.887 276.238 136.043 293.166 132.965 C 277.008 128.348 277.008 115.267 287.78 107.573 z "
     id="path623"
     sodipodi:nodetypes="cccc" />
  <path
     style="fill:#ffffff;fill-rule:evenodd;stroke:none;stroke-opacity:1;stroke-width:1pt;stroke-linejoin:miter;stroke-linecap:butt;fill-opacity:0.498039;"
     d="M 144.66 366.113 C 141.582 365.344 105.417 364.574 99.2611 366.882 C 93.1053 373.808 70.7908 397.661 96.1832 397.661 C 197.752 401.509 29.2397 389.197 144.66 366.113 z "
     id="path624"
     sodipodi:nodetypes="cccc" />
  <path
     style="fill:#ffffff;fill-rule:evenodd;stroke:none;stroke-opacity:1;stroke-width:1pt;stroke-linejoin:miter;stroke-linecap:butt;fill-opacity:0.498039;"
     d="M 163.127 191.444 C 161.588 191.444 110.803 183.75 99.2614 189.906 C 95.4137 210.681 96.9527 262.235 97.7217 277.624 C 116.959 206.064 141.581 193.753 163.127 191.444 z "
     id="path625"
     sodipodi:nodetypes="cccc" />
  <path
     style="fill:#000000;fill-rule:evenodd;stroke:none;stroke-opacity:1;stroke-width:1pt;stroke-linejoin:miter;stroke-linecap:butt;fill-opacity:0.25;"
     d="M 240.843 265.313 C 243.921 263.774 238.534 207.603 242.382 188.367 C 259.31 176.824 276.238 167.591 296.244 154.51 C 252.385 190.675 253.154 229.918 240.843 265.313 z "
     id="path626"
     sodipodi:nodetypes="cccc" />
  <path
     style="fill:#000000;fill-rule:evenodd;stroke:none;stroke-opacity:1;stroke-width:1pt;stroke-linejoin:miter;stroke-linecap:butt;fill-opacity:0.247059;"
     d="M 314.711 158.357 C 331.639 131.426 343.181 131.426 375.499 99.1088 C 343.181 124.5 304.708 137.582 314.711 158.357 z "
     id="path627"
     sodipodi:nodetypes="ccc" />
  <path
     style="fill:#000000;fill-rule:evenodd;stroke:none;stroke-opacity:1;stroke-width:1pt;stroke-linejoin:miter;stroke-linecap:butt;fill-opacity:0.247059;"
     d="M 358.571 156.049 C 358.571 155.28 377.038 131.426 379.346 131.426 C 367.805 146.815 356.263 184.519 358.571 156.049 z "
     id="path628"
     sodipodi:nodetypes="ccc" />
  <path
     style="fill:#000000;fill-rule:evenodd;stroke:none;stroke-opacity:1;stroke-width:1pt;stroke-linejoin:miter;stroke-linecap:butt;fill-opacity:0.247059;"
     d="M 300.861 396.122 C 297.783 382.272 297.783 361.496 302.4 350.723 C 307.016 339.951 403.2 115.267 404.739 115.267 C 397.044 143.737 341.643 265.313 300.861 396.122 z "
     id="path629"
     sodipodi:nodetypes="cccc" />
  <path
     style="fill:#000000;fill-rule:evenodd;stroke:none;stroke-opacity:1;stroke-width:1pt;stroke-linejoin:miter;stroke-linecap:butt;fill-opacity:0.247059;"
     d="M 255.463 305.325 C 255.463 305.325 297.013 301.478 302.4 306.094 C 303.169 314.559 285.471 344.568 285.471 343.029 C 300.861 313.02 278.546 303.786 255.463 305.325 z "
     id="path630"
     sodipodi:nodetypes="cccc" />
  <path
     style="fill:#ffffff;fill-rule:evenodd;stroke:none;stroke-opacity:1;stroke-width:1pt;stroke-linejoin:miter;stroke-linecap:butt;fill-opacity:0.5;"
     d="M 158.51 313.02 C 153.893 318.406 123.884 346.876 126.961 350.723 C 130.039 353.032 144.66 349.954 166.974 352.262 C 164.665 348.415 113.881 357.649 158.51 313.02 z "
     id="path631"
     sodipodi:nodetypes="cccc" />
  <path
     style="fill:#ffffff;fill-rule:evenodd;stroke:none;stroke-opacity:1;stroke-width:1pt;stroke-linejoin:miter;stroke-linecap:butt;fill-opacity:0.498039;"
     d="M 137.734 291.475 C 137.734 291.475 113.881 286.088 111.572 290.705 C 109.264 295.322 112.342 302.247 111.572 303.017 C 110.803 303.786 110.034 292.244 137.734 291.475 z "
     id="path632"
     sodipodi:nodetypes="cccc" />
  <path
     style="fill:#000000;fill-rule:evenodd;stroke:none;stroke-opacity:1;stroke-width:1pt;stroke-linejoin:miter;stroke-linecap:butt;fill-opacity:0.247059;"
     d="M 232.378 301.477 C 231.609 305.325 227.762 295.322 233.148 289.936 C 238.534 284.55 250.076 280.702 250.076 280.702 C 249.307 280.702 233.917 293.013 232.378 301.477 z "
     id="path633"
     sodipodi:nodetypes="cccc" />
</svg>
