<?xml version="1.0" encoding="UTF-8" standalone="no"?>
<!DOCTYPE svg PUBLIC "-//W3C//DTD SVG 20010904//EN"
"http://www.w3.org/TR/2001/REC-SVG-20010904/DTD/svg10.dtd">
<!-- Created with Inkscape (http://www.inkscape.org/) -->
<svg
   id="svg548"
   sodipodi:version="0.32"
   width="400pt"
   height="400pt"
   sodipodi:docbase="/var/www/html/svg_gallery/svg/callouts"
   sodipodi:docname="cloud_r.svg"
   xmlns="http://www.w3.org/2000/svg"
   xmlns:sodipodi="http://sodipodi.sourceforge.net/DTD/sodipodi-0.dtd"
   xmlns:inkscape="http://www.inkscape.org/namespaces/inkscape"
   xmlns:xlink="http://www.w3.org/1999/xlink"
   inkscape:version="0.37">
  <defs
     id="defs550" />
  <sodipodi:namedview
     id="base"
     inkscape:zoom="0.77250000"
     inkscape:cx="200.000000"
     inkscape:cy="200.000000"
     inkscape:window-width="400"
     inkscape:window-height="500"
     inkscape:window-x="34"
     inkscape:window-y="24" />
  <path
     style="fill:#000000;fill-rule:evenodd;stroke:none;stroke-opacity:1;stroke-width:2.5;stroke-linejoin:miter;stroke-linecap:butt;fill-opacity:0.5;stroke-dasharray:none;"
     d="M 166.37761 63.988792 C 169.97461 63.988792 202.35161 40.006092 255.11461 37.607692 C 327.06261 29.213692 357.04161 75.980192 357.04161 75.980192 C 354.64361 81.975892 406.20561 38.806792 436.18461 42.404192 C 468.56161 47.200792 481.75261 61.590292 478.15461 91.568792 C 475.75661 110.75549 455.37061 119.14949 450.57461 128.74249 C 452.97261 133.53849 479.35361 149.12849 479.35361 191.09849 C 479.35361 233.06849 452.97261 255.85149 454.17161 255.85149 C 455.37061 255.85149 480.55261 297.82149 461.36661 323.00349 C 442.18061 348.18549 388.21861 324.20349 379.82461 319.40649 C 371.43061 321.80449 371.43061 338.59249 347.44761 342.19049 C 323.46461 345.78749 293.48661 334.99549 293.48661 334.99549 L 281.49561 325.40249 L 411.00261 460.90449 L 221.53761 332.59649 C 205.94961 337.39349 209.54661 340.99049 165.17861 345.78749 C 128.00461 345.78749 136.39861 338.59249 124.40761 333.79549 C 110.01761 343.38849 51.259815 356.58049 32.073415 320.60549 C 16.484605 275.03849 40.467515 264.24549 45.264015 255.85149 C 40.467515 245.05949 24.878615 227.07249 27.276915 193.49649 C 27.276915 150.32649 38.069215 128.74249 47.662415 121.54749 C 42.865815 111.95449 23.679515 73.581592 65.649415 49.599092 C 135.19961 31.611892 165.17861 65.187992 166.37761 63.988792 z "
     id="path660"
     sodipodi:nodetypes="ccccccccccccccccccccccc" />
  <path
     style="fill:#ffffff;fill-rule:evenodd;stroke:black;stroke-opacity:1;stroke-width:2.5;stroke-linejoin:miter;stroke-linecap:butt;fill-opacity:1;stroke-dasharray:none;"
     d="M 151.81451 54.280054 C 155.41151 54.280054 187.78851 30.297354 240.55151 27.898954 C 312.49951 19.504954 342.47851 66.271454 342.47851 66.271454 C 340.08051 72.267154 391.64251 29.098054 421.62151 32.695454 C 453.99851 37.492054 467.18951 51.881554 463.59151 81.860054 C 461.19351 101.04675 440.80751 109.44075 436.01151 119.03375 C 438.40951 123.82975 464.79051 139.41975 464.79051 181.38975 C 464.79051 223.35975 438.40951 246.14275 439.60851 246.14275 C 440.80751 246.14275 465.98951 288.11275 446.80351 313.29475 C 427.61751 338.47675 373.65551 314.49475 365.26151 309.69775 C 356.86751 312.09575 356.86751 328.88375 332.88451 332.48175 C 308.90151 336.07875 278.92351 325.28675 278.92351 325.28675 L 266.93251 315.69375 L 396.43951 451.19575 L 206.97451 322.88775 C 191.38651 327.68475 194.98351 331.28175 150.61551 336.07875 C 113.44151 336.07875 121.83551 328.88375 109.84451 324.08675 C 95.454508 333.67975 36.696708 346.87175 17.510308 310.89675 C 1.9214981 265.32975 25.904408 254.53675 30.700908 246.14275 C 25.904408 235.35075 10.315508 217.36375 12.713808 183.78775 C 12.713808 140.61775 23.506108 119.03375 33.099308 111.83875 C 28.302708 102.24575 9.1164081 63.872854 51.086308 39.890354 C 120.63651 21.903154 150.61551 55.479254 151.81451 54.280054 z "
     id="path598"
     sodipodi:nodetypes="ccccccccccccccccccccccc" />
</svg>
