<?xml version="1.0" encoding="UTF-8" standalone="no"?>
<!DOCTYPE svg PUBLIC "-//W3C//DTD SVG 20010904//EN"
"http://www.w3.org/TR/2001/REC-SVG-20010904/DTD/svg10.dtd">
<!-- Created with Inkscape (http://www.inkscape.org/) -->
<svg
   id="svg548"
   sodipodi:version="0.32"
   width="400pt"
   height="400pt"
   sodipodi:docbase="/var/www/html/svg_gallery/svg/callouts"
   sodipodi:docname="segmented_r.svg"
   xmlns="http://www.w3.org/2000/svg"
   xmlns:sodipodi="http://sodipodi.sourceforge.net/DTD/sodipodi-0.dtd"
   xmlns:inkscape="http://www.inkscape.org/namespaces/inkscape"
   xmlns:xlink="http://www.w3.org/1999/xlink"
   inkscape:version="0.37">
  <defs
     id="defs550" />
  <sodipodi:namedview
     id="base"
     inkscape:zoom="0.77250000"
     inkscape:cx="200.000000"
     inkscape:cy="200.000000"
     inkscape:window-width="400"
     inkscape:window-height="500"
     inkscape:window-x="0"
     inkscape:window-y="24" />
  <path
     style="fill:#000000;fill-rule:evenodd;stroke:none;stroke-opacity:1;stroke-width:2.5;stroke-linejoin:miter;stroke-linecap:butt;fill-opacity:0.5;stroke-dasharray:none;"
     d="M 226.75374 317.84574 L 450.99374 479.73074 L 289.10974 315.44774 L 367.05374 347.82474 C 380.24374 327.43974 387.43874 323.84174 399.42974 309.45174 C 419.81574 315.44774 472.57774 328.63774 480.97174 332.23474 L 460.58674 263.88474 L 491.76374 208.72374 L 460.58674 155.96174 L 474.97574 79.216438 L 395.83274 100.80064 L 332.27874 58.831138 L 253.13474 112.79274 L 178.78774 63.627538 L 122.42774 113.99174 L 39.687338 99.601838 L 74.462438 169.15174 L 33.691638 233.90574 L 74.462438 275.87574 L 49.280438 358.61674 L 126.02474 326.23974 L 178.78774 374.20574 L 226.75374 317.84574 z "
     id="path811"
     sodipodi:nodetypes="ccccccccccccccccccccccc" />
  <path
     style="fill:#ffffff;fill-rule:evenodd;stroke:black;stroke-opacity:1;stroke-width:2.5;stroke-linejoin:miter;stroke-linecap:butt;fill-opacity:1;stroke-dasharray:none;"
     d="M 217.045 308.137 L 441.285 470.022 L 279.401 305.739 L 357.345 338.116 C 370.535 317.731 377.73 314.133 389.721 299.743 C 410.107 305.739 462.869 318.929 471.263 322.526 L 450.878 254.176 L 482.055 199.015 L 450.878 146.253 L 465.267 69.5077 L 386.124 91.0919 L 322.57 49.1224 L 243.426 103.084 L 169.079 53.9188 L 112.719 104.283 L 29.9786 89.8931 L 64.7537 159.443 L 23.9829 224.197 L 64.7537 266.167 L 39.5717 348.908 L 116.316 316.531 L 169.079 364.497 L 217.045 308.137 z "
     id="path592"
     sodipodi:nodetypes="ccccccccccccccccccccccc" />
</svg>
