<?xml version="1.0" encoding="UTF-8" standalone="no"?>
<!DOCTYPE svg PUBLIC "-//W3C//DTD SVG 20010904//EN"
"http://www.w3.org/TR/2001/REC-SVG-20010904/DTD/svg10.dtd">
<!-- Created with Inkscape (http://www.inkscape.org/) -->
<svg
   id="svg548"
   sodipodi:version="0.32"
   width="400pt"
   height="400pt"
   sodipodi:docbase="/var/www/html/svg_gallery/svg/callouts"
   sodipodi:docname="stared_l.svg"
   xmlns="http://www.w3.org/2000/svg"
   xmlns:sodipodi="http://sodipodi.sourceforge.net/DTD/sodipodi-0.dtd"
   xmlns:inkscape="http://www.inkscape.org/namespaces/inkscape"
   xmlns:xlink="http://www.w3.org/1999/xlink"
   inkscape:version="0.37">
  <defs
     id="defs550" />
  <sodipodi:namedview
     id="base"
     inkscape:zoom="0.77250000"
     inkscape:cx="200.000000"
     inkscape:cy="200.000000"
     inkscape:window-width="400"
     inkscape:window-height="500"
     inkscape:window-x="0"
     inkscape:window-y="24" />
  <path
     style="fill:#000000;fill-rule:evenodd;stroke:none;stroke-opacity:1;stroke-width:2.15822;stroke-linejoin:miter;stroke-linecap:butt;fill-opacity:0.5;stroke-dasharray:none;"
     d="M 308.83613 297.48391 L 367.79846 351.32926 L 340.71567 258.48215 L 443.11742 281.39479 L 382.48426 229.84345 L 495.66496 229.84345 L 390.56876 198.33872 L 483.53878 158.34819 L 405.25456 142.22324 L 445.82536 92.872765 L 381.89211 102.09299 L 405.39052 39.38925 L 344.44836 78.285918 L 330.12324 20.504566 L 286.8063 72.289965 C 286.8063 68.69311 261.38087 21.238984 260.03364 21.238984 C 258.68641 21.238984 233.82728 71.323877 233.82728 71.323877 L 188.46084 25.068703 L 177.07513 79.484869 L 134.57844 32.892938 C 134.57844 32.892938 133.6492 84.944637 130.95474 84.944637 C 128.26028 84.944637 66.602482 52.673252 66.602482 52.673252 C 66.602482 52.673252 81.397279 111.95449 81.397279 113.38631 C 81.397279 114.81812 14.498999 103.06028 14.498999 103.06028 L 69.593802 145.82129 L 11.211266 165.33411 C 11.211266 165.33411 60.14893 201.5415 58.801477 202.97331 C 57.454136 204.40513 15.536781 240.79761 15.536781 240.79761 C 15.536781 240.79761 90.2491 239.00635 88.901871 239.00635 C 88.753552 240.2053 17.464026 293.5491 17.464026 294.98092 C 17.464026 296.41273 95.033503 275.89919 95.033503 275.89919 L 42.767881 350.43243 L 129.91651 289.98688 L 111.49801 355.59007 L 162.84664 314.40059 L 148.91479 350.05985 L 215.57059 318.9289 L 50.183258 497.29804 L 257.3257 318.23031 L 282.44213 361.92398 L 308.83613 297.48391 z "
     id="path821"
     sodipodi:nodetypes="ccccccccccccccccccccccccccccccccccccccccc" />
  <path
     style="font-size:12;fill:#ffffff;fill-rule:evenodd;stroke:#000000;stroke-width:2.5;"
     d="M 305.59988 287.77517 L 364.56221 341.62052 L 337.47942 248.77341 L 439.88117 271.68605 L 379.24801 220.13471 L 492.42871 220.13471 L 387.33251 188.62998 L 480.30253 148.63945 L 402.01831 132.5145 L 442.58911 83.164027 L 378.65586 92.384253 L 402.15427 29.680512 L 341.21211 68.57718 L 326.88699 10.795828 L 283.57005 62.581227 C 283.57005 58.984372 258.14462 11.530246 256.79739 11.530246 C 255.45016 11.530246 230.59104 61.61514 230.59104 61.61514 L 185.2246 15.359965 L 173.83888 69.776132 L 131.34219 23.1842 C 131.34219 23.1842 130.41295 75.2359 127.71849 75.2359 C 125.02403 75.2359 63.366236 42.964514 63.366236 42.964514 C 63.366236 42.964514 78.161033 102.24575 78.161033 103.67757 C 78.161033 105.10938 11.262753 93.351534 11.262753 93.351534 L 66.357556 136.11255 L 7.9750204 155.62537 C 7.9750204 155.62537 56.912684 191.83276 55.565231 193.26457 C 54.21789 194.69639 12.300535 231.08887 12.300535 231.08887 C 12.300535 231.08887 87.012854 229.29761 85.665625 229.29761 C 85.517306 230.49656 14.22778 283.84036 14.22778 285.27218 C 14.22778 286.70399 91.797258 266.19045 91.797258 266.19045 L 39.531635 340.72369 L 126.68026 280.27814 L 108.26176 345.88133 L 159.61039 304.69185 L 145.67854 340.35111 L 212.33434 309.22016 L 46.947012 487.5893 L 254.08945 308.52157 L 279.20588 352.21524 L 305.59988 287.77517 z "
     id="path599"
     sodipodi:nodetypes="ccccccccccccccccccccccccccccccccccccccccc" />
</svg>
