<?xml version="1.0" encoding="UTF-8" standalone="no"?>
<!DOCTYPE svg PUBLIC "-//W3C//DTD SVG 20010904//EN"
"http://www.w3.org/TR/2001/REC-SVG-20010904/DTD/svg10.dtd">
<!-- Created with Inkscape (http://www.inkscape.org/) -->
<svg
   id="svg548"
   sodipodi:version="0.32"
   width="400pt"
   height="400pt"
   sodipodi:docbase="/var/www/html/svg_gallery/svg/callouts"
   sodipodi:docname="stared_r.svg"
   xmlns="http://www.w3.org/2000/svg"
   xmlns:sodipodi="http://sodipodi.sourceforge.net/DTD/sodipodi-0.dtd"
   xmlns:inkscape="http://www.inkscape.org/namespaces/inkscape"
   xmlns:xlink="http://www.w3.org/1999/xlink"
   inkscape:version="0.37">
  <defs
     id="defs550" />
  <sodipodi:namedview
     id="base"
     inkscape:zoom="0.77250000"
     inkscape:cx="200.000000"
     inkscape:cy="200.000000"
     inkscape:window-width="400"
     inkscape:window-height="500"
     inkscape:window-x="61"
     inkscape:window-y="24" />
  <path
     style="fill:#000000;fill-rule:evenodd;stroke:none;stroke-opacity:1;stroke-width:2.15822;stroke-linejoin:miter;stroke-linecap:butt;fill-opacity:0.5;stroke-dasharray:none;"
     d="M 320.04777 297.54127 L 394.59818 346.59081 L 342.33379 263.33651 L 444.73554 286.24915 L 384.10238 234.69781 L 497.28308 234.69781 L 392.18688 203.19308 L 485.1569 163.20255 L 406.87268 147.07761 L 447.44348 97.727134 L 383.51023 106.94736 L 407.00864 44.243619 L 346.06648 83.140287 L 331.74136 25.358935 L 288.42442 77.144334 C 288.42442 73.547479 262.99898 26.093353 261.65176 26.093353 C 260.30453 26.093353 235.4454 76.178246 235.4454 76.178246 L 190.07896 29.923072 L 178.69325 84.339238 L 136.19655 37.747307 C 136.19655 37.747307 135.26731 89.799006 132.57286 89.799006 C 129.8784 89.799006 68.220605 57.527621 68.220605 57.527621 C 68.220605 57.527621 83.015402 116.80885 83.015402 118.24067 C 83.015402 119.67249 16.117122 107.91464 16.117122 107.91464 L 71.211925 150.67566 L 12.829389 170.18848 C 12.829389 170.18848 61.767053 206.39586 60.4196 207.82768 C 59.072258 209.25949 17.154904 245.65198 17.154904 245.65198 C 17.154904 245.65198 91.867223 243.86071 90.519994 243.86071 C 90.371675 245.05967 19.082149 298.40346 19.082149 299.83528 C 19.082149 301.26709 96.651631 280.75356 96.651631 280.75356 L 44.386004 355.2868 L 131.53463 294.84124 L 120.31184 361.64339 L 164.46476 319.25495 L 181.71019 363.30807 L 217.18871 323.78326 L 416.34036 498.55555 L 258.94381 323.08467 L 324.83105 349.98943 L 320.04777 297.54127 z "
     id="path826"
     sodipodi:nodetypes="ccccccccccccccccccccccccccccccccccccccccc" />
  <path
     style="font-size:12;fill:#ffffff;fill-rule:evenodd;stroke:#000000;stroke-width:2.5;"
     d="M 311.95716 286.21441 L 386.50757 335.26396 L 334.24318 252.00966 L 436.64493 274.92229 L 376.01177 223.37095 L 489.19247 223.37095 L 384.09626 191.86623 L 477.06628 151.87569 L 398.78207 135.75075 L 439.35287 86.400273 L 375.41961 95.620499 L 398.91803 32.916758 L 337.97587 71.813426 L 323.65075 14.032074 L 280.3338 65.817473 C 280.3338 62.220618 254.90837 14.766492 253.56114 14.766492 C 252.21391 14.766492 227.35479 64.851386 227.35479 64.851386 L 181.98835 18.596211 L 170.60264 73.012378 L 128.10594 26.420446 C 128.10594 26.420446 127.1767 78.472146 124.48224 78.472146 C 121.78779 78.472146 60.12999 46.20076 60.12999 46.20076 C 60.12999 46.20076 74.924787 105.482 74.924787 106.91381 C 74.924787 108.34563 8.0265071 96.58778 8.0265071 96.58778 L 63.12131 139.3488 L 4.7387745 158.86162 C 4.7387745 158.86162 53.676438 195.069 52.328985 196.50082 C 50.981644 197.93264 9.064289 234.32512 9.064289 234.32512 C 9.064289 234.32512 83.776608 232.53386 82.429379 232.53386 C 82.28106 233.73281 10.991534 287.07661 10.991534 288.50842 C 10.991534 289.94024 88.561012 269.4267 88.561012 269.4267 L 36.295389 343.95994 L 123.44401 283.51438 L 112.22123 350.31653 L 156.37415 307.9281 L 173.61958 351.98121 L 209.0981 312.45641 L 408.24975 487.22869 L 250.8532 311.75781 L 316.74044 338.66258 L 311.95716 286.21441 z "
     id="path599"
     sodipodi:nodetypes="ccccccccccccccccccccccccccccccccccccccccc" />
</svg>
