<?xml version="1.0" encoding="UTF-8" standalone="no"?>
<!DOCTYPE svg PUBLIC "-//W3C//DTD SVG 20010904//EN"
"http://www.w3.org/TR/2001/REC-SVG-20010904/DTD/svg10.dtd">
<!-- Created with Inkscape (http://www.inkscape.org/) -->
<svg
   id="svg548"
   sodipodi:version="0.32"
   width="400pt"
   height="400pt"
   sodipodi:docbase="/var/www/html/svg_gallery/svg/callouts"
   sodipodi:docname="cloud_c.svg"
   inkscape:version="0.37"
   xmlns="http://www.w3.org/2000/svg"
   xmlns:inkscape="http://www.inkscape.org/namespaces/inkscape"
   xmlns:sodipodi="http://sodipodi.sourceforge.net/DTD/sodipodi-0.dtd"
   xmlns:xlink="http://www.w3.org/1999/xlink">
  <defs
     id="defs550" />
  <sodipodi:namedview
     id="base"
     inkscape:zoom="0.77250000"
     inkscape:cx="200.000000"
     inkscape:cy="200.000000"
     inkscape:window-width="400"
     inkscape:window-height="500"
     inkscape:window-x="33"
     inkscape:window-y="24" />
  <path
     style="fill:#000000;fill-rule:evenodd;stroke:none;stroke-opacity:1;stroke-width:1pt;stroke-linejoin:miter;stroke-linecap:butt;fill-opacity:0.5;"
     d="M 164.75949 62.370669 C 168.35649 62.370669 200.73349 38.387969 253.49649 35.989569 C 325.44449 27.595569 355.42349 74.362069 355.42349 74.362069 C 353.02549 80.357769 404.58749 37.188669 434.56649 40.786069 C 466.94349 45.582669 480.13449 59.972169 476.53649 89.950669 C 474.13849 109.13737 453.75249 117.53137 448.95649 127.12437 C 451.35449 131.92037 477.73549 147.51037 477.73549 189.48037 C 477.73549 231.45037 451.35449 254.23337 452.55349 254.23337 C 453.75249 254.23337 478.93449 296.20337 459.74849 321.38537 C 440.56249 346.56737 386.60049 322.58537 378.20649 317.78837 C 369.81249 320.18637 369.81249 336.97437 345.82949 340.57237 C 321.84649 344.16937 291.86849 333.37737 291.86849 333.37737 L 279.87749 323.78437 L 254.69549 456.88837 L 219.91949 330.97837 C 204.33149 335.77537 207.92849 339.37237 163.56049 344.16937 C 126.38649 344.16937 134.78049 336.97437 122.78949 332.17737 C 108.39949 341.77037 49.641692 354.96237 30.455292 318.98737 C 14.866482 273.42037 38.849392 262.62737 43.645892 254.23337 C 38.849392 243.44137 23.260492 225.45437 25.658792 191.87837 C 25.658792 148.70837 36.451092 127.12437 46.044292 119.92937 C 41.247692 110.33637 22.061392 71.963469 64.031292 47.980969 C 133.58149 29.993769 163.56049 63.569869 164.75949 62.370669 z "
     id="path650"
     sodipodi:nodetypes="ccccccccccccccccccccccc" />
  <path
     style="fill:#ffffff;fill-rule:evenodd;stroke:black;stroke-opacity:1;stroke-width:2.5;stroke-linejoin:miter;stroke-linecap:butt;fill-opacity:1;stroke-dasharray:none;"
     d="M 158.287 57.5163 C 161.884 57.5163 194.261 33.5336 247.024 31.1352 C 318.972 22.7412 348.951 69.5077 348.951 69.5077 C 346.553 75.5034 398.115 32.3343 428.094 35.9317 C 460.471 40.7283 473.662 55.1178 470.064 85.0963 C 467.666 104.283 447.28 112.677 442.484 122.27 C 444.882 127.066 471.263 142.656 471.263 184.626 C 471.263 226.596 444.882 249.379 446.081 249.379 C 447.28 249.379 472.462 291.349 453.276 316.531 C 434.09 341.713 380.128 317.731 371.734 312.934 C 363.34 315.332 363.34 332.12 339.357 335.718 C 315.374 339.315 285.396 328.523 285.396 328.523 L 273.405 318.93 L 248.223 452.034 L 213.447 326.124 C 197.859 330.921 201.456 334.518 157.088 339.315 C 119.914 339.315 128.308 332.12 116.317 327.323 C 101.927 336.916 43.1692 350.108 23.9828 314.133 C 8.39399 268.566 32.3769 257.773 37.1734 249.379 C 32.3769 238.587 16.788 220.6 19.1863 187.024 C 19.1863 143.854 29.9786 122.27 39.5718 115.075 C 34.7752 105.482 15.5889 67.1091 57.5588 43.1266 C 127.109 25.1394 157.088 58.7155 158.287 57.5163 z "
     id="path598"
     sodipodi:nodetypes="ccccccccccccccccccccccc" />
</svg>
