<?xml version="1.0" encoding="UTF-8" standalone="no"?>
<!DOCTYPE svg PUBLIC "-//W3C//DTD SVG 20010904//EN"
"http://www.w3.org/TR/2001/REC-SVG-20010904/DTD/svg10.dtd">
<!-- Created with Inkscape (http://www.inkscape.org/) -->
<svg
   id="svg548"
   sodipodi:version="0.32"
   width="400pt"
   height="400pt"
   sodipodi:docbase="/var/www/html/svg_gallery/svg/callouts"
   sodipodi:docname="stared.svg"
   inkscape:version="0.38.1"
   xmlns="http://www.w3.org/2000/svg"
   xmlns:inkscape="http://www.inkscape.org/namespaces/inkscape"
   xmlns:sodipodi="http://sodipodi.sourceforge.net/DTD/sodipodi-0.dtd"
   xmlns:xlink="http://www.w3.org/1999/xlink">
  <defs
     id="defs550" />
  <sodipodi:namedview
     id="base"
     inkscape:zoom="0.77250000"
     inkscape:cx="200.00000"
     inkscape:cy="200.00000"
     inkscape:window-width="400"
     inkscape:window-height="500"
     inkscape:window-x="642"
     inkscape:window-y="94" />
  <path
     style="fill:#000000;fill-rule:evenodd;stroke:none;stroke-opacity:1;stroke-width:2.15822;stroke-linejoin:miter;stroke-linecap:butt;fill-opacity:0.5;stroke-dasharray:none;"
     d="M 308.83612,302.33827 L 379.78980,354.98467 L 340.71567,263.33652 L 443.11741,286.24915 L 382.48425,234.69781 L 495.66495,234.69781 L 390.56875,203.19309 L 483.53877,163.20256 L 405.25455,147.07761 L 445.82535,97.727134 L 381.89210,106.94736 L 405.39051,44.243619 L 344.44836,83.140287 L 330.12323,25.358935 L 286.80629,77.144334 C 286.80629,73.547479 261.38086,26.093353 260.03363,26.093353 C 258.68640,26.093353 233.82728,76.178246 233.82728,76.178246 L 188.46084,29.923072 L 177.07512,84.339238 L 134.57843,37.747307 C 134.57843,37.747307 133.64919,89.799006 130.95473,89.799006 C 128.26027,89.799006 66.602482,57.527621 66.602482,57.527621 C 66.602482,57.527621 81.397279,116.80886 81.397279,118.24067 C 81.397279,119.67249 14.498999,107.91464 14.498999,107.91464 L 69.593802,150.67566 L 11.211266,170.18848 C 11.211266,170.18848 60.148930,206.39587 58.801477,207.82768 C 57.454136,209.25950 15.536781,245.65198 15.536781,245.65198 C 15.536781,245.65198 90.249100,243.86072 88.901871,243.86072 C 88.753552,245.05967 17.464026,298.40347 17.464026,299.83528 C 17.464026,301.26710 95.033503,280.75356 95.033503,280.75356 L 42.767881,355.28680 L 129.91650,294.84124 L 111.49801,360.44444 L 162.84664,319.25496 L 165.70290,363.30807 L 215.57059,323.78327 L 245.16652,387.91552 L 264.52027,325.48377 L 300.42914,352.38854 L 308.83612,302.33827 z "
     id="path816"
     sodipodi:nodetypes="ccccccccccccccccccccccccccccccccccccccccc" />
  <path
     style="font-size:12;fill:#ffffff;fill-rule:evenodd;stroke:#000000;stroke-width:2.5;"
     d="M 303.98176,289.39329 L 374.93543,342.03969 L 335.86130,250.39153 L 438.26305,273.30417 L 377.62989,221.75283 L 490.81059,221.75283 L 385.71438,190.24810 L 478.68441,150.25757 L 400.40019,134.13263 L 440.97099,84.782150 L 377.03774,94.002376 L 400.53615,31.298635 L 339.59399,70.195303 L 325.26887,12.413951 L 281.95193,64.199350 C 281.95193,60.602495 256.52649,13.148369 255.17927,13.148369 C 253.83204,13.148369 228.97291,63.233263 228.97291,63.233263 L 183.60647,16.978088 L 172.22076,71.394255 L 129.72406,24.802323 C 129.72406,24.802323 128.79482,76.854023 126.10037,76.854023 C 123.40591,76.854023 61.748113,44.582637 61.748113,44.582637 C 61.748113,44.582637 76.542910,103.86387 76.542910,105.29569 C 76.542910,106.72750 9.6446301,94.969657 9.6446301,94.969657 L 64.739433,137.73068 L 6.3568975,157.24350 C 6.3568975,157.24350 55.294561,193.45088 53.947108,194.88270 C 52.599767,196.31451 10.682412,232.70700 10.682412,232.70700 C 10.682412,232.70700 85.394731,230.91573 84.047502,230.91573 C 83.899183,232.11469 12.609657,285.45848 12.609657,286.89030 C 12.609657,288.32211 90.179135,267.80858 90.179135,267.80858 L 37.913512,342.34181 L 125.06213,281.89626 L 106.64364,347.49946 L 157.99227,306.30997 L 160.84853,350.36309 L 210.71622,310.83828 L 241.93028,365.26180 L 259.66591,312.53879 L 295.57478,339.44355 L 303.98176,289.39329 z "
     id="path599"
     sodipodi:nodetypes="ccccccccccccccccccccccccccccccccccccccccc" />
</svg>
