<?xml version="1.0" encoding="UTF-8" standalone="no"?>
<!DOCTYPE svg PUBLIC "-//W3C//DTD SVG 20010904//EN"
"http://www.w3.org/TR/2001/REC-SVG-20010904/DTD/svg10.dtd">
<!-- Created with Inkscape (http://www.inkscape.org/) -->
<svg
   id="svg548"
   sodipodi:version="0.32"
   width="400pt"
   height="400pt"
   sodipodi:docbase="/var/www/html/svg_gallery/svg/flowcharts"
   sodipodi:docname="fc16.svg"
   xmlns="http://www.w3.org/2000/svg"
   xmlns:sodipodi="http://sodipodi.sourceforge.net/DTD/sodipodi-0.dtd"
   xmlns:inkscape="http://www.inkscape.org/namespaces/inkscape"
   xmlns:xlink="http://www.w3.org/1999/xlink"
   inkscape:version="0.37">
  <defs
     id="defs550" />
  <sodipodi:namedview
     id="base"
     showgrid="true"
     inkscape:zoom="0.77250000"
     inkscape:cx="200.000000"
     inkscape:cy="200.000000"
     inkscape:window-width="400"
     inkscape:window-height="500"
     inkscape:window-x="0"
     inkscape:window-y="24" />
  <path
     style="fill:#000000;fill-rule:evenodd;stroke:none;stroke-opacity:1;stroke-width:3.75;stroke-linejoin:miter;stroke-linecap:butt;fill-opacity:0.25;stroke-dasharray:none;"
     d="M 79.073527 86.015778 L 433.44608 88.937778 C 433.44608 88.937778 479.80415 248.67488 479.84813 248.67488 C 480.88975 249.64888 434.37533 424.96988 434.37533 424.96988 L 80.999259 423.02188 C 82.947269 422.04788 31.219562 251.59688 30.156442 249.64888 C 31.152726 249.64988 78.1218 86.989778 79.073527 86.015778 z "
     id="path1551"
     sodipodi:nodetypes="ccccccc" />
  <path
     style="fill:#ffffff;fill-rule:evenodd;stroke:black;stroke-opacity:1;stroke-width:3.75;stroke-linejoin:miter;stroke-linecap:butt;fill-opacity:1;stroke-dasharray:none;"
     d="M 68.568 55.8529 L 431.234 58.7749 C 431.234 58.7749 478.677 218.512 478.722 218.512 C 479.788 219.486 432.185 394.807 432.185 394.807 L 70.5388 392.859 C 72.5324 391.885 19.5941 221.434 18.5061 219.486 C 19.5257 219.487 67.594 56.8269 68.568 55.8529 z "
     id="path605"
     sodipodi:nodetypes="ccccccc"
     transform="matrix(0.977132,0.000000,0.000000,1.000000,2.364802,20.45414)" />
</svg>
