<?xml version="1.0" encoding="UTF-8" standalone="no"?>
<!DOCTYPE svg PUBLIC "-//W3C//DTD SVG 20010904//EN"
"http://www.w3.org/TR/2001/REC-SVG-20010904/DTD/svg10.dtd">
<!-- Created with Inkscape (http://www.inkscape.org/) -->
<svg
   id="svg548"
   sodipodi:version="0.32"
   width="400pt"
   height="400pt"
   sodipodi:docbase="/var/www/html/svg_gallery/svg/flowcharts"
   sodipodi:docname="fc24.svg"
   xmlns="http://www.w3.org/2000/svg"
   xmlns:sodipodi="http://sodipodi.sourceforge.net/DTD/sodipodi-0.dtd"
   xmlns:inkscape="http://www.inkscape.org/namespaces/inkscape"
   xmlns:xlink="http://www.w3.org/1999/xlink"
   inkscape:version="0.37">
  <defs
     id="defs550" />
  <sodipodi:namedview
     id="base"
     showgrid="true"
     inkscape:zoom="0.77250000"
     inkscape:cx="200.000000"
     inkscape:cy="200.000000"
     inkscape:window-width="400"
     inkscape:window-height="500"
     inkscape:window-x="0"
     inkscape:window-y="24" />
  <path
     style="fill:#000000;fill-rule:evenodd;stroke:none;stroke-opacity:1;stroke-width:3.75;stroke-linejoin:miter;stroke-linecap:butt;fill-opacity:0.25;stroke-dasharray:none;"
     d="M 69.753742 33.458738 C 69.753742 33.458738 245.06624 263.30774 245.06624 262.33374 C 245.06623 261.35973 425.26949 30.536738 422.34749 33.458738 L 69.753742 33.458738 z M 246.06624 262.30249 C 246.06625 263.27649 65.894242 494.13074 68.816242 491.20874 L 421.40999 491.20874 C 421.41 491.20875 246.06624 261.32849 246.06624 262.30249 z "
     id="path1600" />
  <path
     style="fill:#ffffff;fill-rule:evenodd;stroke:black;stroke-opacity:1;stroke-width:3.75;stroke-linejoin:miter;stroke-linecap:butt;fill-opacity:1;stroke-dasharray:none;"
     d="M 70.1285 250.654 L 422.719 250.654 C 422.719 250.654 247.398 20.7887 247.398 21.7627 C 247.398 22.7367 67.2065 253.576 70.1285 250.654 z "
     id="path615"
     sodipodi:nodetypes="cccc"
     transform="translate(-7.792053,230.8396)" />
  <path
     style="fill:#ffffff;fill-rule:evenodd;stroke:black;stroke-opacity:1;stroke-width:3.75;stroke-linejoin:miter;stroke-linecap:butt;fill-opacity:1;stroke-dasharray:none;"
     d="M 70.1285 250.654 L 422.719 250.654 C 422.719 250.654 247.398 20.7887 247.398 21.7627 C 247.398 22.7367 67.2065 253.576 70.1285 250.654 z "
     id="path616"
     sodipodi:nodetypes="cccc"
     transform="matrix(-1.000000,1.224606e-16,-1.224606e-16,-1.000000,485.9942,274.3891)" />
</svg>
