<?xml version="1.0" encoding="UTF-8" standalone="no"?>
<!DOCTYPE svg PUBLIC "-//W3C//DTD SVG 20010904//EN"
"http://www.w3.org/TR/2001/REC-SVG-20010904/DTD/svg10.dtd">
<!-- Created with Inkscape (http://www.inkscape.org/) -->
<svg
   id="svg548"
   sodipodi:version="0.32"
   width="400pt"
   height="400pt"
   sodipodi:docbase="/var/www/html/svg_gallery/svg/misc"
   sodipodi:docname="bulb.svg"
   xmlns="http://www.w3.org/2000/svg"
   xmlns:sodipodi="http://sodipodi.sourceforge.net/DTD/sodipodi-0.dtd"
   xmlns:inkscape="http://www.inkscape.org/namespaces/inkscape"
   xmlns:xlink="http://www.w3.org/1999/xlink"
   inkscape:version="0.37">
  <defs
     id="defs550" />
  <sodipodi:namedview
     id="base"
     showgrid="true"
     inkscape:zoom="0.77250000"
     inkscape:cx="200.000000"
     inkscape:cy="200.000000"
     inkscape:window-width="400"
     inkscape:window-height="500"
     inkscape:window-x="69"
     inkscape:window-y="25" />
  <path
     style="fill:#ffffc5;fill-rule:evenodd;stroke:none;stroke-opacity:1;stroke-width:1pt;stroke-linejoin:miter;stroke-linecap:butt;fill-opacity:1;"
     d="M 58.75 61.25 C 136.25 95 225 142.5 263.75 7.5 C 283.75 100 317.5 133.75 380 92.5 C 342.5 176.25 426.25 160 441.25 177.5 C 376.25 215 300 215 417.5 327.5 C 316.25 215 318.75 326.25 310 357.5 C 297.5 351.25 223.75 311.25 156.25 370 C 181.25 251.25 118.75 273.75 67.5 267.5 C 116.25 230 151.25 216.25 58.75 61.25 z "
     id="path640"
     sodipodi:nodetypes="ccccccccc"
     transform="matrix(0.919330,0.393488,-0.393488,0.919330,114.7826,-75.22476)" />
  <path
     style="fill:#c1ffff;fill-rule:evenodd;stroke:#007dff;stroke-opacity:1;stroke-width:2.5;stroke-linejoin:miter;stroke-linecap:butt;fill-opacity:0.8;stroke-dasharray:none;"
     d="M 192.479 270.213 C 193.327 218.49 126.34 193.9 124.644 134.546 C 129.732 74.3423 150.93 21.772 240.81 16.6843 C 328.147 22.6197 354.432 61.6242 357.823 132.85 C 353.584 209.163 278.966 215.946 287.446 269.365 C 285.75 288.868 194.174 286.324 192.479 270.213 z "
     id="path618"
     sodipodi:nodetypes="cccccc"
     transform="matrix(0.919330,0.393488,-0.393488,0.919330,85.92826,-4.634018)" />
  <path
     style="fill:#4c4c4c;fill-rule:evenodd;stroke:black;stroke-opacity:1;stroke-width:1pt;stroke-linejoin:miter;stroke-linecap:butt;fill-opacity:1;"
     d="M 184.847 267.669 C 194.174 261.734 288.294 260.038 295.925 266.821 C 291.685 278.693 197.566 283.78 184.847 267.669 z "
     id="path620"
     sodipodi:nodetypes="ccc"
     transform="matrix(0.919330,0.393488,-0.393488,0.919330,85.92826,-4.634018)" />
  <path
     style="fill:none;fill-rule:evenodd;stroke:black;stroke-opacity:1;stroke-width:1pt;stroke-linejoin:miter;stroke-linecap:butt;fill-opacity:1;"
     d="M 218.75 277.5 C 230 178.75 172.5 132.5 155 112.5 "
     id="path631"
     sodipodi:nodetypes="cc"
     transform="matrix(0.919330,0.393488,-0.393488,0.919330,85.92826,-4.634018)" />
  <path
     style="fill:none;fill-rule:evenodd;stroke:black;stroke-opacity:1;stroke-width:1pt;stroke-linejoin:miter;stroke-linecap:butt;fill-opacity:1;"
     d="M 266.25 277.5 C 267.5 243.75 268.75 126.25 326.25 101.25 "
     id="path632"
     sodipodi:nodetypes="cc"
     transform="matrix(0.919330,0.393488,-0.393488,0.919330,85.92826,-4.634018)" />
  <path
     style="fill:none;fill-rule:evenodd;stroke:black;stroke-opacity:1;stroke-width:1pt;stroke-linejoin:miter;stroke-linecap:butt;fill-opacity:1;"
     d="M 245 281.25 C 240.625 256.875 220.625 167.5 251.875 130 "
     id="path633"
     sodipodi:nodetypes="cc"
     transform="matrix(0.919330,0.393488,-0.393488,0.919330,85.92826,-4.634018)" />
  <path
     style="fill:#949999;fill-rule:evenodd;stroke:black;stroke-opacity:1;stroke-width:1pt;stroke-linejoin:miter;stroke-linecap:butt;fill-opacity:1;"
     d="M 185.695 268.517 C 206.893 281.236 277.271 279.807 295.925 266.821 C 295.077 297.347 288.294 344.831 283.206 360.092 C 279.814 370.268 203.501 369.42 196.718 358.397 C 192.479 347.374 186.543 292.259 185.695 268.517 z "
     id="path619"
     sodipodi:nodetypes="ccccc"
     transform="matrix(0.919330,0.393488,-0.393488,0.919330,85.92826,-4.634018)" />
  <path
     style="fill:#4c4c4c;fill-rule:evenodd;stroke:black;stroke-opacity:1;stroke-width:1pt;stroke-linejoin:miter;stroke-linecap:butt;fill-opacity:1;"
     d="M 202.653 361.789 C 206.893 376.204 209.437 381.199 213.677 387.983 C 224.699 396.462 250.137 397.533 265.4 387.357 C 269.639 381.422 273.031 366.029 273.031 365.181 C 261.16 371.062 217.024 371.027 202.653 361.789 z "
     id="path621"
     sodipodi:nodetypes="ccccc"
     transform="matrix(0.919330,0.393488,-0.296246,0.692137,50.74708,77.56176)" />
  <path
     style="fill:#b3b3b3;fill-rule:evenodd;stroke:black;stroke-opacity:1;stroke-width:1pt;stroke-linejoin:miter;stroke-linecap:butt;fill-opacity:1;"
     d="M 223.851 399.945 C 222.155 415.208 254.376 416.904 252.681 400.793 C 240.81 402.489 231.483 401.641 223.851 399.945 z "
     id="path622"
     sodipodi:nodetypes="ccc"
     transform="matrix(0.919330,0.393488,-0.393488,0.919330,91.83059,-18.42396)" />
  <path
     style="fill:#b3b3b3;fill-rule:evenodd;stroke:black;stroke-opacity:1;stroke-width:1pt;stroke-linejoin:miter;stroke-linecap:butt;fill-opacity:1;"
     d="M 195.87 349.07 C 223.851 349.917 282.653 338.251 288.294 332.959 C 294.025 330.531 293.033 326.381 289.525 327.988 C 278.824 333.834 212.828 344.83 193.327 343.135 C 188.997 343.134 189.228 350.123 195.87 349.07 z "
     id="path623"
     sodipodi:nodetypes="ccccc"
     transform="matrix(0.919330,0.393488,-0.393488,0.919330,85.92826,-4.634018)" />
  <path
     style="fill:#b3b3b3;fill-rule:evenodd;stroke:black;stroke-opacity:1;stroke-width:1pt;stroke-linejoin:miter;stroke-linecap:butt;fill-opacity:1;"
     d="M 191.693 349.391 C 219.674 350.238 287.472 338.894 290.864 332.959 C 296.916 329.567 296.246 324.774 291.132 327.345 C 280.431 333.191 210.9 344.83 191.399 343.135 C 186.427 343.134 187.301 350.766 191.693 349.391 z "
     id="path624"
     sodipodi:nodetypes="ccccc"
     transform="matrix(0.919330,0.393488,-0.393488,0.919330,91.61755,-17.92625)" />
  <path
     style="fill:#b3b3b3;fill-rule:evenodd;stroke:black;stroke-opacity:1;stroke-width:1pt;stroke-linejoin:miter;stroke-linecap:butt;fill-opacity:1;"
     d="M 191.05 349.391 C 219.031 350.238 289.079 336.324 293.435 330.71 C 299.487 327.64 297.532 323.811 293.381 325.418 C 282.68 331.264 209.615 344.83 190.114 343.135 C 185.784 343.455 184.409 349.159 191.05 349.391 z "
     id="path625"
     sodipodi:nodetypes="ccccc"
     transform="matrix(0.919330,0.393488,-0.393488,0.919330,96.75861,-30.75417)" />
  <path
     style="fill:#b3b3b3;fill-rule:evenodd;stroke:black;stroke-opacity:1;stroke-width:1pt;stroke-linejoin:miter;stroke-linecap:butt;fill-opacity:1;"
     d="M 188.159 349.07 C 216.14 349.917 291.007 337.287 294.399 331.352 C 301.093 328.925 299.138 324.132 294.987 325.739 C 284.286 331.585 207.366 345.794 187.865 344.099 C 183.535 344.098 182.481 349.16 188.159 349.07 z "
     id="path626"
     sodipodi:nodetypes="ccccc"
     transform="matrix(0.919330,0.393488,-0.393488,0.919330,102.2376,-42.73842)" />
  <path
     style="fill:#b3b3b3;fill-rule:evenodd;stroke:black;stroke-opacity:1;stroke-width:1pt;stroke-linejoin:miter;stroke-linecap:butt;fill-opacity:1;"
     d="M 187.516 349.391 C 215.497 350.238 292.613 335.038 296.005 329.103 C 300.451 326.997 300.102 322.525 295.951 324.132 C 285.25 329.978 206.402 346.115 186.901 344.42 C 183.214 344.098 181.838 350.123 187.516 349.391 z "
     id="path627"
     sodipodi:nodetypes="ccccc"
     transform="matrix(0.919330,0.393488,-0.393488,0.919330,107.4212,-54.84913)" />
  <path
     style="fill:#b3b3b3;fill-rule:evenodd;stroke:black;stroke-opacity:1;stroke-width:1pt;stroke-linejoin:miter;stroke-linecap:butt;fill-opacity:1;"
     d="M 191.05 349.07 C 219.031 349.917 230.923 348.533 234.636 345.489 C 231.692 345.007 221.383 344.695 216.268 343.732 C 216.17 343.473 198.69 345.152 190.435 342.814 C 186.106 343.134 186.658 349.481 191.05 349.07 z "
     id="path628"
     sodipodi:nodetypes="ccccc"
     transform="matrix(0.919330,0.393488,-0.393488,0.919330,108.1740,-68.85628)" />
  <path
     style="fill:#b3b3b3;fill-rule:evenodd;stroke:black;stroke-opacity:1;stroke-width:1pt;stroke-linejoin:miter;stroke-linecap:butt;fill-opacity:1;"
     d="M 198.762 347.785 C 226.743 348.632 284.902 338.894 288.294 332.959 C 290.812 330.853 289.82 327.988 286.633 328.309 C 275.932 334.155 214.756 344.509 195.255 342.814 C 191.568 344.741 192.763 347.874 198.762 347.785 z "
     id="path629"
     sodipodi:nodetypes="ccccc"
     transform="matrix(0.919330,0.393488,-0.393488,0.919330,81.37798,8.446693)" />
  <path
     style="fill:#b3b3b3;fill-rule:evenodd;stroke:black;stroke-opacity:1;stroke-width:1pt;stroke-linejoin:miter;stroke-linecap:butt;fill-opacity:1;"
     d="M 254.347 340.395 C 267.869 339.635 278.797 339.537 284.76 335.208 C 291.454 332.459 291.427 327.988 287.276 329.595 C 276.575 335.441 242.067 339.368 236.06 339.922 C 237.193 340.242 254.131 340.806 254.347 340.395 z "
     id="path630"
     sodipodi:nodetypes="ccccc"
     transform="matrix(0.919330,0.393488,-0.393488,0.919330,72.90266,18.44952)" />
  <path
     style="fill:none;fill-rule:evenodd;stroke:black;stroke-opacity:1;stroke-width:1.25;stroke-linejoin:miter;stroke-linecap:butt;fill-opacity:1;stroke-dasharray:1.25,2.5;stroke-dashoffset:0;"
     d="M 154.375 110.625 L 251.875 130 C 251.875 130 326.875 101.875 326.25 102.5 C 325.625 103.125 153.125 111.875 154.375 110.625 z "
     id="path634"
     sodipodi:nodetypes="cccc"
     transform="matrix(0.919330,0.393488,-0.393488,0.919330,85.92826,-4.634018)" />
  <path
     style="fill:#ffffff;fill-rule:evenodd;stroke:none;stroke-opacity:1;stroke-width:1pt;stroke-linejoin:miter;stroke-linecap:butt;fill-opacity:0.42963;"
     d="M 259.375 285.625 C 243.125 314.375 238.75 343.75 236.875 391.875 C 258.125 353.125 263.125 313.75 259.375 285.625 z "
     id="path635"
     sodipodi:nodetypes="ccc"
     transform="matrix(0.919330,0.393488,-0.393488,0.919330,85.92826,-4.634018)" />
  <path
     style="fill:#ffff00;fill-rule:evenodd;stroke:none;stroke-opacity:1;stroke-width:1pt;stroke-linejoin:miter;stroke-linecap:butt;fill-opacity:0.422222;"
     d="M 154.375 110 C 154.375 110 170.29 101.143 172.487 95.076 C 180.871 96.964 184.357 102.33 208.397 91.5403 C 220.947 96.219 235.675 97.557 250.701 90.0443 C 266.169 97.557 284.54 95.196 296.875 88.8571 C 309.652 94.451 324.375 101.25 324.375 101.25 C 324.375 101.25 304.817 108.018 296.572 111.402 C 288.768 109.924 274.95 113.201 262.955 118.201 C 254.464 114.924 237.089 112.134 228.125 117.5 C 213.125 114.482 205.625 108.75 199.375 114.375 C 191.25 110.625 155 110 154.375 110 z "
     id="path636"
     sodipodi:nodetypes="ccccccccccc"
     transform="matrix(0.919330,0.393488,-0.393488,0.919330,85.92826,-4.634018)" />
  <path
     style="fill:#ffff00;fill-rule:evenodd;stroke:none;stroke-opacity:1;stroke-width:1pt;stroke-linejoin:miter;stroke-linecap:butt;fill-opacity:0.427451;"
     d="M 155.122 110.649 C 155.122 110.649 168.531 122.278 170.299 125.814 C 178.255 124.488 184.884 126.256 193.722 129.792 C 203.887 128.908 211.69 128.756 222.297 136.711 C 232.461 132.291 250.139 130.095 250.139 130.095 C 250.139 130.095 234.595 121.559 227.524 111.836 C 215.592 114.046 208.003 117.216 190.767 107.051 C 181.487 109.703 166.17 115.069 155.122 110.649 z "
     id="path637"
     sodipodi:nodetypes="cccccccc"
     transform="matrix(0.919330,0.393488,-0.393488,0.919330,85.92826,-4.634018)" />
  <path
     style="fill:#ffff00;fill-rule:evenodd;stroke:none;stroke-opacity:1;stroke-width:1pt;stroke-linejoin:miter;stroke-linecap:butt;fill-opacity:0.427451;"
     d="M 251.023 129.652 C 256.326 127.885 256.705 118.1 258.473 112.796 C 273.057 112.354 276.29 115.586 286.013 110.283 C 291.316 111.609 297.426 113.301 302.73 107.556 C 308.917 109.323 325.711 101.368 325.711 101.368 C 325.711 101.368 318.931 110.788 317.163 118.301 C 307.882 116.533 303.677 119.993 299.699 129.274 C 286.883 124.854 282.173 130.599 274.66 135.903 C 269.357 131.926 261.63 127.885 251.023 129.652 z "
     id="path639"
     sodipodi:nodetypes="ccccccccc"
     transform="matrix(0.919330,0.393488,-0.393488,0.919330,85.92826,-4.634018)" />
  <path
     style="fill:#ffffff;fill-rule:evenodd;stroke:none;stroke-opacity:1;stroke-width:1pt;stroke-linejoin:miter;stroke-linecap:butt;fill-opacity:0.82963;"
     d="M 158.677 185.962 C 159.624 185.962 178.571 185.015 178.571 181.699 C 183.781 182.173 200.359 185.015 207.464 179.331 C 215.516 180.752 242.515 181.7 249.62 177.437 C 256.725 179.331 285.144 179.331 295.091 175.068 C 301.723 177.91 322.563 179.805 322.563 179.805 C 322.563 179.805 306.459 182.647 301.722 184.542 C 296.985 186.436 279.46 183.12 267.145 187.857 C 260.04 184.542 244.883 183.121 230.199 187.857 C 221.673 184.068 206.517 183.594 193.254 188.804 C 187.57 184.541 158.677 188.331 158.677 185.962 z "
     id="path641"
     sodipodi:nodetypes="ccccccccccc"
     transform="matrix(0.919330,0.393488,-0.393488,0.919330,114.7826,-75.22476)" />
  <path
     style="fill:#ffffff;fill-rule:evenodd;stroke:none;stroke-opacity:1;stroke-width:1pt;stroke-linejoin:miter;stroke-linecap:butt;fill-opacity:0.8;"
     d="M 325.879 179.331 C 325.879 179.331 319.248 183.12 317.353 186.91 C 306.932 189.278 303.143 189.278 299.354 195.436 C 290.354 193.541 280.881 197.804 277.566 204.435 C 268.092 202.067 253.409 206.33 253.409 206.33 C 253.409 206.33 261.461 201.12 263.356 196.383 C 269.039 196.857 282.776 192.593 285.144 188.804 C 289.881 190.226 303.617 185.489 305.512 183.121 C 308.354 184.067 323.511 180.279 325.879 179.331 z "
     id="path642"
     sodipodi:nodetypes="ccccccccc"
     transform="matrix(0.919330,0.393488,-0.393488,0.919330,114.7826,-75.22476)" />
  <path
     style="fill:#ffffff;fill-rule:evenodd;stroke:none;stroke-opacity:1;stroke-width:1pt;stroke-linejoin:miter;stroke-linecap:butt;fill-opacity:0.874074;"
     d="M 155.835 185.962 C 155.835 185.962 172.413 193.067 174.307 196.856 C 179.044 195.91 190.412 197.804 196.096 201.594 C 207.937 199.225 217.411 198.752 223.095 205.382 C 231.147 203.962 233.515 202.066 249.146 205.856 C 236.831 200.172 233.042 201.12 226.41 194.962 C 221.2 196.383 207.464 196.857 205.569 193.067 C 201.306 194.488 184.728 192.594 182.833 188.804 C 179.044 189.278 158.203 189.752 155.835 185.962 z "
     id="path643"
     sodipodi:nodetypes="ccccccccc"
     transform="matrix(0.919330,0.393488,-0.393488,0.919330,114.7826,-75.22476)" />
  <path
     style="fill:#ffffff;fill-rule:evenodd;stroke:none;stroke-opacity:1;stroke-width:1pt;stroke-linejoin:miter;stroke-linecap:butt;fill-opacity:0.585185;"
     d="M 168.149 129.123 C 179.991 111.598 198.938 104.967 210.306 105.914 C 213.622 111.598 221.2 119.65 223.094 122.965 C 202.728 128.649 197.517 134.807 187.096 146.175 C 178.097 137.649 167.676 128.649 168.149 129.123 z "
     id="path644"
     sodipodi:nodetypes="ccccc"
     transform="matrix(0.919330,0.393488,-0.393488,0.919330,114.7826,-75.22476)" />
  <path
     style="fill:#ffffff;fill-rule:evenodd;stroke:none;stroke-opacity:1;stroke-width:1pt;stroke-linejoin:miter;stroke-linecap:butt;fill-opacity:0.585185;"
     d="M 170.044 130.544 C 177.623 113.019 198.938 104.967 210.306 105.914 C 213.622 111.598 214.569 112.545 216.463 115.86 C 196.097 121.544 190.412 129.123 179.991 140.491 C 170.992 131.965 169.571 130.07 170.044 130.544 z "
     id="path645"
     sodipodi:nodetypes="ccccc"
     transform="matrix(0.919330,0.393488,-0.393488,0.919330,127.6072,-48.61141)" />
  <path
     style="fill:#ffffff;fill-rule:evenodd;stroke:none;stroke-opacity:1;stroke-width:1pt;stroke-linejoin:miter;stroke-linecap:butt;fill-opacity:0.585185;"
     d="M 188.043 122.965 C 195.148 114.913 199.886 107.335 209.359 104.019 C 212.675 109.703 224.516 117.755 226.41 121.07 C 219.78 122.491 208.885 131.491 204.147 136.701 C 195.148 128.175 187.57 122.491 188.043 122.965 z "
     id="path646"
     sodipodi:nodetypes="ccccc"
     transform="matrix(0.919330,0.393488,-0.393488,0.919330,64.96833,-67.17827)" />
  <path
     style="fill:#ffffff;fill-rule:evenodd;stroke:none;stroke-opacity:1;stroke-width:1pt;stroke-linejoin:miter;stroke-linecap:butt;fill-opacity:0.585185;"
     d="M 187.096 121.07 C 194.201 113.018 199.886 107.335 209.359 104.019 C 212.675 109.703 217.885 112.071 219.779 115.386 C 213.149 116.807 204.622 124.86 199.884 130.07 C 192.78 123.438 185.675 119.649 187.096 121.07 z "
     id="path647"
     sodipodi:nodetypes="ccccc"
     transform="matrix(0.919330,0.393488,-0.393488,0.919330,76.42390,-42.18136)" />
</svg>
