<?xml version="1.0" encoding="UTF-8" standalone="no"?>
<!DOCTYPE svg PUBLIC "-//W3C//DTD SVG 20010904//EN"
"http://www.w3.org/TR/2001/REC-SVG-20010904/DTD/svg10.dtd">
<!-- Created with Inkscape (http://www.inkscape.org/) -->
<svg
   id="svg548"
   sodipodi:version="0.32"
   width="400pt"
   height="400pt"
   sodipodi:docbase="/var/www/html/svg_gallery/svg/misc"
   sodipodi:docname="mushroom.svg"
   xmlns="http://www.w3.org/2000/svg"
   xmlns:sodipodi="http://sodipodi.sourceforge.net/DTD/sodipodi-0.dtd"
   xmlns:inkscape="http://www.inkscape.org/namespaces/inkscape"
   xmlns:xlink="http://www.w3.org/1999/xlink"
   inkscape:version="0.37">
  <defs
     id="defs550" />
  <sodipodi:namedview
     id="base"
     showgrid="true"
     inkscape:zoom="0.77250000"
     inkscape:cx="200.000000"
     inkscape:cy="200.000000"
     inkscape:window-width="675"
     inkscape:window-height="718"
     inkscape:window-x="25"
     inkscape:window-y="24" />
  <path
     style="fill:#fafada;fill-rule:evenodd;stroke:black;stroke-opacity:1;stroke-width:2.5;stroke-linejoin:miter;stroke-linecap:butt;fill-opacity:1;stroke-dasharray:none;"
     d="M 215 202.5 C 215 202.5 226.25 328.75 220 377.5 C 213.75 426.25 210 443.75 223.75 461.25 C 252.5 468.75 345 478.75 366.25 446.25 C 365 403.75 315 345 306.25 297.5 C 297.5 250 335.65939 203.89563 278.15939 192.64563 C 220.65939 181.39563 213.75 205 215 202.5 z "
     id="path785"
     sodipodi:nodetypes="ccccccc" />
  <path
     style="fill:#f0f0df;fill-rule:evenodd;stroke:black;stroke-opacity:1;stroke-width:2.5;stroke-linejoin:miter;stroke-linecap:butt;fill-opacity:1;stroke-dasharray:none;"
     d="M 215 211.25 C 215 211.25 218.75 262.5 203.75 301.25 C 230 320 308.75 297.5 327.5 297.5 C 302.5 258.75 312.5 223.75 312.5 216.25 C 312.5 208.75 212.5 208.75 215 211.25 z "
     id="path786"
     sodipodi:nodetypes="ccccc" />
  <path
     style="fill:#fa0000;fill-rule:evenodd;stroke:#000000;stroke-opacity:1;stroke-width:2.5;stroke-linejoin:miter;stroke-linecap:butt;fill-opacity:1;stroke-dasharray:none;"
     d="M 20 271.25 C 31.25 182.5 161.25 37.5 262.5 33.75 C 378.75 16.25 481.25 145 493.75 191.25 C 462.5 210 311.25 221.25 273.75 237.5 C 236.25 261.25 41.25 273.75 20 271.25 z "
     id="path784"
     sodipodi:nodetypes="ccccc" />
  <path
     style="fill:#faffff;fill-rule:evenodd;stroke:none;stroke-opacity:1;stroke-width:1pt;stroke-linejoin:miter;stroke-linecap:butt;fill-opacity:1;"
     d="M 255 118.75 C 200 141.25 212.5 226.25 268.75 217.5 C 360 201.25 293.75 108.75 255 118.75 z "
     id="path787"
     sodipodi:nodetypes="ccc" />
  <path
     style="fill:#faffff;fill-rule:evenodd;stroke:none;stroke-opacity:1;stroke-width:1pt;stroke-linejoin:miter;stroke-linecap:butt;fill-opacity:1;"
     d="M 28.75 253.75 C 22.5 243.75 55 161.25 90 176.25 C 133.75 197.5 68.75 285 28.75 253.75 z "
     id="path788"
     sodipodi:nodetypes="ccc" />
  <path
     style="fill:#faffff;fill-rule:evenodd;stroke:none;stroke-opacity:1;stroke-width:1pt;stroke-linejoin:miter;stroke-linecap:butt;fill-opacity:1;"
     d="M 246.25 35 C 326.25 23.75 272.5 62.5 245 70 C 221.25 75 140 62.5 246.25 35 z "
     id="path789"
     sodipodi:nodetypes="ccc" />
  <path
     style="fill:#faffff;fill-rule:evenodd;stroke:none;stroke-opacity:1;stroke-width:1pt;stroke-linejoin:miter;stroke-linecap:butt;fill-opacity:1;"
     d="M 142.5 102.5 C 173.75 91.25 230 153.75 162.5 178.75 C 93.75 187.5 107.5 117.5 142.5 102.5 z "
     id="path790"
     sodipodi:nodetypes="ccc" />
  <path
     style="fill:#faffff;fill-rule:evenodd;stroke:none;stroke-opacity:1;stroke-width:1pt;stroke-linejoin:miter;stroke-linecap:butt;fill-opacity:1;"
     d="M 433.75 106.25 C 401.25 80 355 87.5 366.25 145 C 392.5 198.75 462.5 152.5 433.75 106.25 z "
     id="path791"
     sodipodi:nodetypes="ccc" />
  <path
     style="fill:#faffff;fill-rule:evenodd;stroke:none;stroke-opacity:1;stroke-width:1pt;stroke-linejoin:miter;stroke-linecap:butt;fill-opacity:1;"
     d="M 330 40 C 300 56.25 335 115 386.25 67.5 C 376.25 56.25 338.75 42.5 330 40 z "
     id="path792"
     sodipodi:nodetypes="ccc" />
  <path
     style="fill:#faffff;fill-rule:evenodd;stroke:none;stroke-opacity:1;stroke-width:1pt;stroke-linejoin:miter;stroke-linecap:butt;fill-opacity:1;"
     d="M 492.5 190 C 487.5 177.5 476.25 132.5 448.75 168.75 C 421.25 230 492.5 190 492.5 190 z "
     id="path793"
     sodipodi:nodetypes="ccc" />
  <path
     style="fill:#e6e4df;fill-rule:evenodd;stroke:none;stroke-opacity:1;stroke-width:1pt;stroke-linejoin:miter;stroke-linecap:butt;fill-opacity:1;"
     d="M 296.1165 307.44337 C 302.58899 317.15211 352.75081 414.23948 354.36893 432.03883 C 355.98706 449.83819 338.18771 456.31068 328.47897 453.07443 C 318.77023 449.83818 284.78964 318.77022 296.1165 307.44337 z "
     id="path1193"
     sodipodi:nodetypes="cccc" />
  <path
     style="fill:#ffffff;fill-rule:evenodd;stroke:none;stroke-opacity:1;stroke-width:1pt;stroke-linejoin:miter;stroke-linecap:butt;fill-opacity:0.433333;"
     d="M 289.64401 37.216828 C 208.73786 30.744336 72.815534 116.50486 29.126214 260.5178 C 42.071197 265.37217 33.980582 273.46278 74.433661 260.5178 C 127.83171 69.579284 249.19093 63.106796 289.64401 37.216828 z "
     id="path1194"
     sodipodi:nodetypes="cccc" />
</svg>
