<?xml version="1.0" encoding="UTF-8" standalone="no"?>
<!DOCTYPE svg PUBLIC "-//W3C//DTD SVG 20010904//EN"
"http://www.w3.org/TR/2001/REC-SVG-20010904/DTD/svg10.dtd">
<!-- Created with Inkscape (http://www.inkscape.org/) -->
<svg
   id="svg548"
   sodipodi:version="0.32"
   width="400pt"
   height="400pt"
   sodipodi:docbase="/var/www/html/svg_gallery/svg/misc"
   sodipodi:docname="rocket.svg"
   xmlns="http://www.w3.org/2000/svg"
   xmlns:sodipodi="http://sodipodi.sourceforge.net/DTD/sodipodi-0.dtd"
   xmlns:inkscape="http://www.inkscape.org/namespaces/inkscape"
   xmlns:xlink="http://www.w3.org/1999/xlink"
   inkscape:version="0.37">
  <defs
     id="defs550" />
  <sodipodi:namedview
     id="base"
     showgrid="true"
     inkscape:zoom="0.77250000"
     inkscape:cx="200.000000"
     inkscape:cy="200.000000"
     inkscape:window-width="400"
     inkscape:window-height="500"
     inkscape:window-x="115"
     inkscape:window-y="24" />
  <path
     style="fill:#ff4000;fill-rule:evenodd;stroke:none;stroke-opacity:1;stroke-width:3.75;stroke-linejoin:miter;stroke-linecap:butt;fill-opacity:1;stroke-dasharray:none;"
     d="M 271.335 362.637 C 271.335 362.637 284.054 399.945 298.468 431.318 C 312.883 462.692 338.321 477.954 341.713 477.954 C 345.104 477.954 348.496 460.148 347.648 449.973 C 346.8 439.798 323.058 419.447 363.759 451.668 C 404.459 483.889 433.288 497.456 430.744 486.433 C 434.984 459.299 387.5 402.489 418.026 412.664 C 448.551 422.839 500.274 446.581 468.053 409.272 C 435.832 371.964 402.763 355.005 430.745 355.853 C 458.726 356.701 485.859 369.42 472.293 344.83 C 458.726 320.24 393.456 281.998 365.475 265.887 C 343.429 276.91 300.165 305.826 271.335 362.637 z "
     id="path671"
     sodipodi:nodetypes="cccccccccccc"
     transform="matrix(1.004098,0.000000,0.000000,1.014736,-1.111864,-7.223473)" />
  <path
     style="fill:#ffff33;fill-rule:evenodd;stroke:none;stroke-opacity:1;stroke-width:1pt;stroke-linejoin:miter;stroke-linecap:butt;fill-opacity:0.696296;"
     d="M 284.054 339.743 C 284.054 339.743 293.381 384.683 303.556 398.249 C 313.731 411.816 316.275 410.12 318.819 391.466 C 321.363 372.812 303.556 354.157 334.081 374.508 C 364.607 394.858 390.892 420.295 375.63 388.922 C 360.367 357.549 356.127 349.918 377.325 360.941 C 398.523 371.964 418.874 380.443 393.435 349.918 C 373.934 327.872 412.937 321.936 419.721 319.393 C 435.832 321.937 351.04 274.452 342.561 274.452 C 333.233 276.148 287.445 332.959 284.054 339.743 z "
     id="path672"
     sodipodi:nodetypes="cccccccccc" />
  <path
     style="fill:#d9d9d9;fill-rule:evenodd;stroke:black;stroke-opacity:1;stroke-width:3.75;stroke-linejoin:miter;stroke-linecap:butt;fill-opacity:1;stroke-dasharray:none;"
     d="M 43.244 60.7763 C 122.101 62.472 321.362 94.6929 397.675 290.563 C 371.389 295.651 306.948 358.397 296.773 393.161 C 102.599 293.955 47.4836 137.089 43.244 60.7763 z "
     id="path663"
     sodipodi:nodetypes="cccc"
     transform="translate(-25.43768,-29.67728)" />
  <path
     style="fill:#bfbfbf;fill-rule:evenodd;stroke:black;stroke-opacity:1;stroke-width:3.75;stroke-linejoin:miter;stroke-linecap:butt;fill-opacity:1;stroke-dasharray:none;"
     d="M 189.087 321.936 C 189.087 321.936 192.478 408.424 192.478 409.272 C 192.478 410.12 296.773 457.604 302.708 460.148 L 297.621 392.314 C 288.294 393.162 205.197 339.743 189.087 321.936 z "
     id="path664"
     sodipodi:nodetypes="ccccc"
     transform="translate(-25.43768,-29.67728)" />
  <path
     style="fill:#bfbfbf;fill-rule:evenodd;stroke:black;stroke-opacity:1;stroke-width:3.75;stroke-linejoin:miter;stroke-linecap:butt;fill-opacity:1;stroke-dasharray:none;"
     d="M 190.761 322.825 C 190.761 322.825 192.478 408.424 192.478 409.272 C 192.478 410.12 296.773 457.604 302.708 460.148 L 297.621 392.314 C 264.809 382.406 210.2 343.258 190.761 322.825 z "
     id="path665"
     sodipodi:nodetypes="ccccc"
     transform="matrix(-2.457462e-2,0.999698,0.999698,2.457462e-2,-13.30614,-47.28390)" />
  <path
     style="fill:#bfbfbf;fill-rule:evenodd;stroke:black;stroke-opacity:1;stroke-width:3.75;stroke-linejoin:bevel;stroke-linecap:butt;fill-opacity:1;stroke-dasharray:none;"
     d="M 189.087 321.936 C 189.087 321.936 213.812 346.712 217.038 351.844 C 220.528 355.099 307.407 409.319 313.342 411.863 L 297.621 392.314 C 288.548 385.922 211.359 336.782 189.087 321.936 z "
     id="path666"
     sodipodi:nodetypes="ccccc"
     transform="matrix(0.988346,0.152224,-0.152224,0.988346,86.11291,-136.8715)" />
  <path
     style="fill:#bfbfbf;fill-rule:evenodd;stroke:black;stroke-opacity:1;stroke-width:3.75;stroke-linejoin:bevel;stroke-linecap:butt;fill-opacity:1;stroke-dasharray:none;"
     d="M 255.225 233.752 L 246.745 243.928 L 264.552 277.845 L 338.321 360.941 L 342.561 355.853 L 270.487 269.365 L 255.225 233.752 z "
     id="path667"
     sodipodi:nodetypes="ccccccc"
     transform="matrix(0.985444,-0.170000,0.170000,0.985444,-66.44337,24.84863)" />
  <path
     style="fill:#bfbfbf;fill-rule:evenodd;stroke:black;stroke-opacity:1;stroke-width:3.75;stroke-linejoin:bevel;stroke-linecap:butt;fill-opacity:1;stroke-dasharray:none;"
     d="M 124.645 131.154 C 95.8152 170.158 155.169 218.49 183.151 183.725 C 217.068 141.329 158.562 100.629 124.645 131.154 z "
     id="path668"
     sodipodi:nodetypes="ccc" />
  <path
     style="fill:#aeffff;fill-rule:evenodd;stroke:black;stroke-opacity:1;stroke-width:3.75;stroke-linejoin:miter;stroke-linecap:butt;fill-opacity:1;stroke-dasharray:none;"
     d="M 132.276 135.393 C 153.474 115.043 202.653 139.633 180.608 176.094 C 156.018 207.466 105.991 167.615 132.276 135.393 z "
     id="path669"
     sodipodi:nodetypes="ccc" />
  <path
     style="fill:#ffffff;fill-rule:evenodd;stroke:none;stroke-opacity:1;stroke-width:1pt;stroke-linejoin:miter;stroke-linecap:butt;fill-opacity:0.5;"
     d="M 148.386 132.002 C 139.907 129.458 117.013 155.744 138.211 171.854 C 150.93 175.246 168.736 133.698 148.386 132.002 z "
     id="path670"
     sodipodi:nodetypes="ccc" />
</svg>
