<?xml version="1.0" encoding="UTF-8" standalone="no"?>
<!DOCTYPE svg PUBLIC "-//W3C//DTD SVG 20010904//EN"
"http://www.w3.org/TR/2001/REC-SVG-20010904/DTD/svg10.dtd">
<!-- Created with Inkscape (http://www.inkscape.org/) -->
<svg
   id="svg1"
   sodipodi:version="0.32"
   inkscape:version="0.38.1"
   width="400.00000pt"
   height="400.00000pt"
   sodipodi:docbase="/var/www/html/svg_gallery/svg/fruits"
   sodipodi:docname="pear.svg"
   xmlns="http://www.w3.org/2000/svg"
   xmlns:inkscape="http://www.inkscape.org/namespaces/inkscape"
   xmlns:sodipodi="http://sodipodi.sourceforge.net/DTD/sodipodi-0.dtd"
   xmlns:xlink="http://www.w3.org/1999/xlink">
  <defs
     id="defs3">
    <linearGradient
       id="linearGradient870">
      <stop
         style="stop-color:#d9b72e;stop-opacity:1.0000000;"
         offset="0.0000000"
         id="stop871" />
      <stop
         style="stop-color:#e4e417;stop-opacity:1.0000000;"
         offset="1.0000000"
         id="stop872" />
    </linearGradient>
    <linearGradient
       id="linearGradient855">
      <stop
         style="stop-color:#dd6204;stop-opacity:1.0000000;"
         offset="0.0000000"
         id="stop856" />
      <stop
         style="stop-color:#e48e17;stop-opacity:0.0000000;"
         offset="1.0000000"
         id="stop857" />
    </linearGradient>
    <linearGradient
       id="linearGradient829">
      <stop
         style="stop-color:#ffffff;stop-opacity:0.54166669;"
         offset="0.0000000"
         id="stop830" />
      <stop
         style="stop-color:#ffffff;stop-opacity:0.0000000;"
         offset="1.0000000"
         id="stop831" />
    </linearGradient>
    <radialGradient
       xlink:href="#linearGradient855"
       id="radialGradient832"
       cx="0.81132078"
       cy="0.65174127"
       r="0.41106603"
       fx="0.81132078"
       fy="0.65174127" />
    <linearGradient
       xlink:href="#linearGradient855"
       id="linearGradient850"
       x1="0.47169811"
       y1="0.53233832"
       x2="0.25471699"
       y2="0.49253732" />
    <linearGradient
       xlink:href="#linearGradient855"
       id="linearGradient854"
       x1="0.55147058"
       y1="-0.14843750"
       x2="0.51470590"
       y2="1.5468750" />
    <radialGradient
       xlink:href="#linearGradient829"
       id="radialGradient874"
       cx="0.46511629"
       cy="0.55263156"
       r="0.38477600"
       fx="0.46511629"
       fy="0.55263156" />
    <linearGradient
       xlink:href="#linearGradient829"
       id="linearGradient875"
       x1="2.2527011e-16"
       y1="0.50000000"
       x2="1.0000000"
       y2="0.50000000" />
    <radialGradient
       xlink:href="#linearGradient829"
       id="radialGradient850"
       cx="0.66911763"
       cy="0.61081082"
       r="1.1099921"
       fx="0.66911763"
       fy="0.61081082" />
    <radialGradient
       xlink:href="#linearGradient829"
       id="radialGradient861"
       cx="0.44262296"
       cy="0.53731346"
       r="0.17327771"
       fx="0.44262296"
       fy="0.53731346" />
    <radialGradient
       xlink:href="#linearGradient829"
       id="radialGradient862"
       cx="0.47368422"
       cy="0.56716418"
       r="0.46706352"
       fx="0.47368422"
       fy="0.56716418" />
    <radialGradient
       xlink:href="#linearGradient870"
       id="radialGradient863"
       cx="0.31666666"
       cy="0.87562191"
       r="0.58675206"
       fx="0.31666666"
       fy="0.87562191" />
    <radialGradient
       xlink:href="#linearGradient855"
       id="radialGradient864"
       cx="0.58730161"
       cy="0.57213932"
       r="0.43028784"
       fx="0.58730161"
       fy="0.57213932" />
    <radialGradient
       xlink:href="#linearGradient870"
       id="radialGradient865"
       cx="14.589211"
       cy="-10.288741"
       r="8.0633326"
       fx="14.589211"
       fy="-10.288741" />
    <radialGradient
       xlink:href="#linearGradient870"
       id="radialGradient866"
       cx="3.9226053"
       cy="-8.1348953"
       r="8.0633326"
       fx="3.9226053"
       fy="-8.1348953" />
    <radialGradient
       xlink:href="#linearGradient870"
       id="radialGradient867"
       cx="2.5892770"
       cy="8.0189390"
       r="8.0633326"
       fx="2.5892770"
       fy="8.0189390" />
    <radialGradient
       xlink:href="#linearGradient870"
       id="radialGradient868"
       cx="-1.8273672"
       cy="4.4804802"
       r="8.0633326"
       fx="-1.8273672"
       fy="4.4804802" />
    <radialGradient
       xlink:href="#linearGradient870"
       id="radialGradient869"
       cx="9.4225760"
       cy="5.2497110"
       r="8.0633326"
       fx="9.4225760"
       fy="5.2497110" />
  </defs>
  <sodipodi:namedview
     id="base"
     pagecolor="#ffffff"
     bordercolor="#666666"
     borderopacity="1.0"
     inkscape:pageopacity="0.0"
     inkscape:pageshadow="2"
     inkscape:zoom="1.0000000"
     inkscape:cx="318.21680"
     inkscape:cy="238.26196"
     inkscape:window-width="871"
     inkscape:window-height="758"
     showgrid="true"
     inkscape:window-x="112"
     inkscape:window-y="24" />
  <path
     style="fill:url(#radialGradient863);fill-rule:evenodd;stroke:#ff8200;stroke-opacity:1.0000000;stroke-width:2.5000000;stroke-linejoin:miter;stroke-linecap:butt;fill-opacity:1.0000000;stroke-dasharray:none;"
     d="M 226.25000,85.000000 C 226.25000,85.000000 258.75000,63.750000 300.00000,85.000000 C 335.00000,125.00000 426.25000,258.75000 433.75000,313.75000 C 425.00000,387.50000 373.75000,478.75000 306.25000,478.75000 C 273.75000,470.00000 243.75000,470.00000 193.75000,478.75000 C 141.25000,477.50000 52.500000,370.00000 78.750000,303.75000 C 105.00000,238.75000 131.25000,212.50000 167.50000,120.00000 C 167.50000,112.50000 202.50000,88.750000 226.25000,85.000000 z "
     id="path946"
     sodipodi:nodetypes="ccccczcc" />
  <path
     style="fill:#643300;fill-rule:evenodd;stroke:#462c00;stroke-opacity:1.0000000;stroke-width:2.5000000;stroke-linejoin:miter;stroke-linecap:butt;fill-opacity:1.0000000;stroke-dasharray:none;"
     d="M 210.00000,88.750000 L 187.50000,50.000000 C 187.50000,50.000000 165.00000,16.250000 197.50000,15.000000 C 221.25000,15.000000 215.00000,30.000000 216.25000,38.750000 C 217.50000,47.500000 233.75000,82.500000 233.75000,82.500000 C 233.75000,82.500000 215.00000,87.500000 210.00000,88.750000 z "
     id="path947"
     sodipodi:nodetypes="cccccc" />
  <path
     style="fill:url(#radialGradient832);fill-rule:evenodd;stroke:none;stroke-opacity:1;stroke-width:1pt;stroke-linejoin:miter;stroke-linecap:butt;fill-opacity:0.75;"
     d="M 305.00000,92.500000 C 305.00000,92.500000 363.75000,210.00000 331.25000,218.75000 C 298.75000,227.50000 246.25000,261.25000 273.75000,290.00000 C 301.25000,318.75000 335.00000,307.50000 340.00000,345.00000 C 345.00000,382.50000 378.75000,418.75000 396.25000,415.00000 C 416.25000,381.87500 429.51282,360.51657 433.28125,302.65625 C 419.68750,259.06250 328.12500,108.75000 305.00000,92.500000 z "
     id="path948"
     sodipodi:nodetypes="ccccccc" />
  <path
     style="fill:url(#radialGradient862);fill-rule:evenodd;stroke:url(#radialGradient874);stroke-opacity:1;stroke-width:1pt;stroke-linejoin:miter;stroke-linecap:butt;fill-opacity:0.75;"
     d="M 210.00000,247.50000 C 166.25000,233.75000 161.25000,286.25000 202.50000,301.25000 C 241.25000,306.25000 255.00000,266.25000 210.00000,247.50000 z "
     id="path949"
     sodipodi:nodetypes="ccc" />
  <path
     style="fill:url(#radialGradient861);fill-rule:evenodd;stroke:none;stroke-opacity:1;stroke-width:1pt;stroke-linejoin:miter;stroke-linecap:butt;fill-opacity:0.75;"
     d="M 228.75000,148.75000 C 211.25000,142.50000 170.00000,168.75000 213.75000,193.75000 C 243.75000,206.25000 276.25000,167.50000 228.75000,148.75000 z "
     id="path950"
     sodipodi:nodetypes="ccc" />
  <path
     style="fill:#ffffff;fill-rule:evenodd;stroke:none;stroke-opacity:1;stroke-width:1pt;stroke-linejoin:miter;stroke-linecap:butt;fill-opacity:0.15000001;"
     d="M 185.00000,26.250000 C 177.50000,28.750000 211.25000,96.250000 216.25000,85.000000 C 210.00000,65.000000 192.50000,32.500000 185.00000,26.250000 z "
     id="path952"
     sodipodi:nodetypes="ccc" />
  <path
     style="fill:url(#radialGradient864);fill-rule:evenodd;stroke:none;stroke-opacity:1;stroke-width:1pt;stroke-linejoin:miter;stroke-linecap:butt;fill-opacity:0.75;"
     d="M 401.12547,231.10448 C 401.12547,231.10448 382.21515,183.46688 344.39450,146.25000 C 303.66457,149.22735 322.57490,281.71943 369.12339,278.74208 C 415.67187,275.76473 398.21619,243.01388 401.12547,231.10448 z "
     id="path953"
     sodipodi:nodetypes="cccc" />
  <path
     style="fill:url(#radialGradient864);fill-rule:evenodd;stroke:none;stroke-opacity:1;stroke-width:1pt;stroke-linejoin:miter;stroke-linecap:butt;fill-opacity:0.75;"
     d="M 396.46052,403.04135 C 396.46052,403.04135 400.84429,318.62491 330.86181,294.97924 C 283.76529,298.77089 305.63154,467.49945 359.45613,463.70780 C 413.28070,459.91615 393.09649,418.20796 396.46052,403.04135 z "
     id="path954"
     sodipodi:nodetypes="cccc" />
  <path
     style="fill:url(#radialGradient864);fill-rule:evenodd;stroke:none;stroke-opacity:1;stroke-width:1pt;stroke-linejoin:miter;stroke-linecap:butt;fill-opacity:0.75;"
     d="M 380.21051,324.91635 C 380.21051,324.91635 384.59428,240.49991 314.61180,216.85424 C 267.51528,220.64589 289.38153,389.37445 343.20612,385.58280 C 397.03069,381.79115 376.84648,340.08296 380.21051,324.91635 z "
     id="path955"
     sodipodi:nodetypes="cccc" />
  <path
     style="fill:url(#radialGradient864);fill-rule:evenodd;stroke:none;stroke-opacity:1;stroke-width:1pt;stroke-linejoin:miter;stroke-linecap:butt;fill-opacity:0.75;"
     d="M 371.46051,243.66635 C 371.46051,243.66635 375.84428,159.24991 305.86180,135.60424 C 258.76528,139.39589 280.63153,308.12445 334.45612,304.33280 C 388.28069,300.54115 368.09648,258.83296 371.46051,243.66635 z "
     id="path956"
     sodipodi:nodetypes="cccc" />
  <path
     style="fill:url(#radialGradient864);fill-rule:evenodd;stroke:none;stroke-opacity:1;stroke-width:1pt;stroke-linejoin:miter;stroke-linecap:butt;fill-opacity:0.75;"
     d="M 351.46051,416.16635 C 351.46051,416.16635 355.84428,331.74991 285.86180,308.10424 C 238.76528,311.89589 260.63153,480.62445 314.45612,476.83280 C 368.28069,473.04115 348.09648,431.33296 351.46051,416.16635 z "
     id="path957"
     sodipodi:nodetypes="cccc" />
  <path
     style="fill:url(#radialGradient864);fill-rule:evenodd;stroke:none;stroke-opacity:1;stroke-width:1pt;stroke-linejoin:miter;stroke-linecap:butt;fill-opacity:0.75;"
     d="M 353.96051,207.41635 C 353.96051,207.41635 358.34428,122.99991 288.36180,99.354240 C 241.26528,103.14589 263.13153,271.87445 316.95612,268.08280 C 370.78069,264.29115 350.59648,222.58296 353.96051,207.41635 z "
     id="path958"
     sodipodi:nodetypes="cccc" />
  <path
     style="fill:#ac4200;fill-rule:evenodd;stroke:none;stroke-opacity:1;stroke-width:1pt;stroke-linejoin:miter;stroke-linecap:butt;fill-opacity:0.17500000;"
     d="M 342.50000,147.50000 C 478.75000,396.25000 310.00000,452.50000 347.50000,462.50000 C 416.25000,400.00000 471.25000,311.25000 342.50000,147.50000 z "
     id="path959"
     sodipodi:nodetypes="ccc" />
  <path
     style="fill:#ffffff;fill-rule:evenodd;stroke:none;stroke-opacity:1;stroke-width:1pt;stroke-linejoin:miter;stroke-linecap:butt;fill-opacity:0.22499999;"
     d="M 171.25000,128.75000 C 97.500000,278.75000 72.500000,307.50000 78.750000,326.25000 C 81.250000,396.25000 130.00000,433.75000 153.75000,451.25000 C 203.75000,430.00000 43.750000,385.00000 171.25000,128.75000 z "
     id="path960"
     sodipodi:nodetypes="cccc" />
</svg>
