<?xml version="1.0" encoding="UTF-8" standalone="no"?>
<!DOCTYPE svg PUBLIC "-//W3C//DTD SVG 20010904//EN"
"http://www.w3.org/TR/2001/REC-SVG-20010904/DTD/svg10.dtd">
<!-- Created with Sodipodi ("http://www.sodipodi.com/") -->
<svg
   id="svg548"
   sodipodi:version="0.32"
   width="400pt"
   height="400pt"
   sodipodi:docbase="/var/www/html/svg_gallery/svg/arrows"
   sodipodi:docname="arrow09_2.svg"
   xmlns="http://www.w3.org/2000/svg"
   xmlns:sodipodi="http://sodipodi.sourceforge.net/DTD/sodipodi-0.dtd"
   xmlns:inkscape="http://www.inkscape.org/namespaces/inkscape"
   xmlns:xlink="http://www.w3.org/1999/xlink"
   inkscape:version="0.38.1">
  <defs
     id="defs550">
    <linearGradient
       id="linearGradient834">
      <stop
         style="stop-color:#ffffff;stop-opacity:0.40000001;"
         offset="0.0000000"
         id="stop835" />
      <stop
         style="stop-color:#ffffff;stop-opacity:0.10000000;"
         offset="1.0000000"
         id="stop836" />
    </linearGradient>
    <linearGradient
       xlink:href="#linearGradient834"
       id="linearGradient837" />
  </defs>
  <sodipodi:namedview
     id="base"
     showgrid="true"
     inkscape:zoom="0.90750000"
     inkscape:cx="200.00000"
     inkscape:cy="201.15563"
     inkscape:window-width="640"
     inkscape:window-height="500"
     inkscape:window-x="387"
     inkscape:window-y="61" />
  <path
     style="fill:#000000;fill-rule:evenodd;stroke:none;stroke-opacity:1;stroke-width:3.7500000;stroke-linejoin:miter;stroke-linecap:butt;fill-opacity:0.50000000;stroke-dasharray:none;"
     d="M 458.31466,330.34629 C 458.28347,329.56065 458.13542,328.90586 457.87716,328.34629 C 449.61269,310.43996 358.72091,337.97128 358.72091,337.97129 C 358.72091,337.97129 364.23296,58.367978 357.34591,45.971283 C 350.45886,33.574589 190.88921,33.512089 184.00216,45.908783 C 177.11512,58.305480 182.62716,337.94004 182.62716,337.94004 C 182.62717,337.94005 91.704134,310.37746 83.439664,328.28379 C 75.352884,345.80517 180.69193,477.97637 267.81466,479.78379 L 267.81466,479.84629 C 269.70991,479.93513 271.61919,479.85475 273.53341,479.81504 C 357.87374,478.06535 459.26009,354.16058 458.31466,330.34629 z "
     id="path833"
     sodipodi:nodetypes="ccccccccccc" />
  <path
     style="fill:#0000ff;fill-rule:evenodd;stroke:black;stroke-opacity:1;stroke-width:3.7500000;stroke-linejoin:miter;stroke-linecap:butt;fill-opacity:1.0000000;stroke-dasharray:none;"
     d="M 448.16544,326.80247 C 448.13425,326.01683 447.98620,325.36204 447.72794,324.80247 C 439.46347,306.89614 348.57168,334.42746 348.57168,334.42747 C 348.57168,334.42747 354.08373,54.824166 347.19668,42.427471 C 340.30963,30.030777 180.73998,29.968277 173.85293,42.364971 C 166.96589,54.761668 172.47793,334.39622 172.47793,334.39622 C 172.47794,334.39623 81.554903,306.83364 73.290433,324.73997 C 65.203653,342.26135 170.54270,474.43255 257.66543,476.23997 L 257.66543,476.30247 C 259.56068,476.39131 261.46996,476.31093 263.38418,476.27122 C 347.72451,474.52153 449.11087,350.61676 448.16544,326.80247 z "
     id="path831"
     sodipodi:nodetypes="ccccccccccc" />
  <path
     style="fill:url(#linearGradient837);fill-rule:evenodd;stroke:none;stroke-opacity:1;stroke-width:1pt;stroke-linejoin:miter;stroke-linecap:butt;fill-opacity:0.50000000;"
     d="M 179.74847,55.806981 C 170.79530,51.674751 184.02228,328.70232 177.33800,340.07007 C 169.27631,351.43782 104.67960,312.69404 79.197507,328.53425 C 77.820087,335.42131 178.37107,481.42682 285.80908,471.78494 C 221.07079,391.89513 194.89999,123.30009 179.74847,55.806981 z "
     id="path832"
     sodipodi:nodetypes="czccc" />
</svg>
