<?xml version="1.0" encoding="UTF-8" standalone="no"?>
<!DOCTYPE svg PUBLIC "-//W3C//DTD SVG 20010904//EN"
"http://www.w3.org/TR/2001/REC-SVG-20010904/DTD/svg10.dtd">
<!-- Created with Sodipodi ("http://www.sodipodi.com/") -->
<svg
   id="svg548"
   sodipodi:version="0.32"
   width="400pt"
   height="400pt"
   sodipodi:docbase="/var/www/html/svg_gallery/svg/arrows"
   sodipodi:docname="arrow09_1.svg"
   xmlns="http://www.w3.org/2000/svg"
   xmlns:sodipodi="http://sodipodi.sourceforge.net/DTD/sodipodi-0.dtd"
   xmlns:inkscape="http://www.inkscape.org/namespaces/inkscape"
   xmlns:xlink="http://www.w3.org/1999/xlink"
   inkscape:version="0.38.1">
  <defs
     id="defs550">
    <linearGradient
       id="linearGradient834">
      <stop
         style="stop-color:#ffffff;stop-opacity:0.40000001;"
         offset="0.0000000"
         id="stop835" />
      <stop
         style="stop-color:#ffffff;stop-opacity:0.10000000;"
         offset="1.0000000"
         id="stop836" />
    </linearGradient>
    <linearGradient
       xlink:href="#linearGradient834"
       id="linearGradient837" />
  </defs>
  <sodipodi:namedview
     id="base"
     showgrid="true"
     inkscape:zoom="0.90750000"
     inkscape:cx="200.00000"
     inkscape:cy="200.00000"
     inkscape:window-width="640"
     inkscape:window-height="500"
     inkscape:window-x="387"
     inkscape:window-y="61" />
  <path
     style="fill:#000000;fill-rule:evenodd;stroke:none;stroke-opacity:1;stroke-width:3.7500000;stroke-linejoin:miter;stroke-linecap:butt;fill-opacity:0.50000000;stroke-dasharray:none;"
     d="M 342.74298,70.610959 C 341.95734,70.642149 341.30255,70.790199 340.74298,71.048459 C 322.83665,79.312929 350.36797,170.20471 350.36798,170.20471 C 350.36798,170.20471 70.764671,164.69266 58.367976,171.57971 C 45.971282,178.46676 45.908782,338.03641 58.305476,344.92346 C 70.702173,351.81050 350.33673,346.29846 350.33673,346.29846 C 350.33674,346.29845 322.77415,437.22149 340.68048,445.48596 C 358.20186,453.57274 490.37306,348.23369 492.18048,261.11096 L 492.24298,261.11096 C 492.33182,259.21571 492.25144,257.30643 492.21173,255.39221 C 490.46204,171.05188 366.55727,69.665529 342.74298,70.610959 z "
     id="path833"
     sodipodi:nodetypes="ccccccccccc" />
  <path
     style="fill:#0000ff;fill-rule:evenodd;stroke:black;stroke-opacity:1;stroke-width:3.7500000;stroke-linejoin:miter;stroke-linecap:butt;fill-opacity:1.0000000;stroke-dasharray:none;"
     d="M 332.59375,67.067148 C 331.80811,67.098338 331.15332,67.246388 330.59375,67.504648 C 312.68742,75.769118 340.21874,166.66090 340.21875,166.66090 C 340.21875,166.66090 60.615445,161.14885 48.218750,168.03590 C 35.822056,174.92295 35.759556,334.49260 48.156250,341.37965 C 60.552947,348.26669 340.18750,342.75465 340.18750,342.75465 C 340.18751,342.75464 312.62492,433.67768 330.53125,441.94215 C 348.05263,450.02893 480.22383,344.68988 482.03125,257.56715 L 482.09375,257.56715 C 482.18259,255.67190 482.10221,253.76262 482.06250,251.84840 C 480.31281,167.50807 356.40804,66.121718 332.59375,67.067148 z "
     id="path831"
     sodipodi:nodetypes="ccccccccccc" />
  <path
     style="fill:url(#linearGradient837);fill-rule:evenodd;stroke:none;stroke-opacity:1;stroke-width:1pt;stroke-linejoin:miter;stroke-linecap:butt;fill-opacity:0.50000000;"
     d="M 53.719008,176.30854 C 45.454545,194.21488 38.567493,294.76584 57.851239,333.33333 C 64.738292,334.71075 119.83471,257.57575 289.25620,265.84022 C 129.47658,245.17906 53.719008,176.30854 53.719008,176.30854 z "
     id="path832"
     sodipodi:nodetypes="cccc" />
</svg>
