<?xml version="1.0" encoding="UTF-8" standalone="no"?>
<!DOCTYPE svg PUBLIC "-//W3C//DTD SVG 20010904//EN"
"http://www.w3.org/TR/2001/REC-SVG-20010904/DTD/svg10.dtd">
<!-- Created with Inkscape (http://www.inkscape.org/) -->
<svg
   id="svg548"
   sodipodi:version="0.32"
   width="400pt"
   height="400pt"
   sodipodi:docbase="/var/www/html/svg_gallery/svg/flowcharts"
   sodipodi:docname="fc14.svg"
   xmlns="http://www.w3.org/2000/svg"
   xmlns:sodipodi="http://sodipodi.sourceforge.net/DTD/sodipodi-0.dtd"
   xmlns:inkscape="http://www.inkscape.org/namespaces/inkscape"
   xmlns:xlink="http://www.w3.org/1999/xlink"
   inkscape:version="0.37">
  <defs
     id="defs550" />
  <sodipodi:namedview
     id="base"
     showgrid="true"
     inkscape:zoom="0.77250000"
     inkscape:cx="200.000000"
     inkscape:cy="200.000000"
     inkscape:window-width="400"
     inkscape:window-height="500"
     inkscape:window-x="0"
     inkscape:window-y="24" />
  <path
     style="fill:#000000;fill-rule:evenodd;stroke:none;stroke-opacity:1;stroke-width:3.75;stroke-linejoin:miter;stroke-linecap:butt;fill-opacity:0.25;stroke-dasharray:none;"
     d="M 82.099504 88.607901 L 472.6761 90.555901 C 472.6761 90.555901 447.3521 148.022 445.4041 250.293 C 442.4821 346.72 474.6241 426.588 474.6241 426.588 L 83.073504 428.536 C 83.073504 428.536 45.087204 365.226 48.983204 250.293 C 48.009204 141.205 81.125504 89.581901 82.099504 88.607901 z "
     id="path1541"
     sodipodi:nodetypes="ccccccc" />
  <path
     style="fill:#ffffff;fill-rule:evenodd;stroke:black;stroke-opacity:1;stroke-width:3.75;stroke-linejoin:miter;stroke-linecap:butt;fill-opacity:1;stroke-dasharray:none;"
     d="M 51.6224 56.8269 L 442.199 58.7749 C 442.199 58.7749 416.875 116.241 414.927 218.512 C 412.005 314.939 444.147 394.807 444.147 394.807 L 52.5964 396.755 C 52.5964 396.755 14.6101 333.445 18.5061 218.512 C 17.5321 109.424 50.6484 57.8009 51.6224 56.8269 z "
     id="path605"
     sodipodi:nodetypes="ccccccc"
     transform="translate(17.53212,20.45414)" />
</svg>
