<?xml version="1.0" encoding="UTF-8" standalone="no"?>
<!DOCTYPE svg PUBLIC "-//W3C//DTD SVG 20010904//EN"
"http://www.w3.org/TR/2001/REC-SVG-20010904/DTD/svg10.dtd">
<!-- Created with Inkscape (http://www.inkscape.org/) -->
<svg
   id="svg548"
   sodipodi:version="0.32"
   width="400pt"
   height="400pt"
   sodipodi:docbase="/var/www/html/svg_gallery/svg/flowcharts"
   sodipodi:docname="fc26.svg"
   xmlns="http://www.w3.org/2000/svg"
   xmlns:sodipodi="http://sodipodi.sourceforge.net/DTD/sodipodi-0.dtd"
   xmlns:inkscape="http://www.inkscape.org/namespaces/inkscape"
   xmlns:xlink="http://www.w3.org/1999/xlink"
   inkscape:version="0.37">
  <defs
     id="defs550" />
  <sodipodi:namedview
     id="base"
     showgrid="true"
     inkscape:zoom="0.77250000"
     inkscape:cx="200.000000"
     inkscape:cy="200.000000"
     inkscape:window-width="400"
     inkscape:window-height="500"
     inkscape:window-x="0"
     inkscape:window-y="24" />
  <path
     style="fill:#000000;fill-rule:evenodd;stroke:none;stroke-opacity:1;stroke-width:3.75;stroke-linejoin:miter;stroke-linecap:butt;fill-opacity:0.25;stroke-dasharray:none;"
     d="M 62.949161 280.48792 L 61.001161 59.387721 L 471.05796 60.361721 L 469.10996 427.56292 C 469.10996 427.56292 345.41116 521.06692 276.25616 425.61492 C 207.10216 330.16192 193.46616 330.16192 169.11616 319.44792 C 144.76616 308.73392 62.949161 281.46192 62.949161 280.48792 z "
     id="path1610"
     sodipodi:nodetypes="ccccccc" />
  <path
     style="fill:#ffffff;fill-rule:evenodd;stroke:black;stroke-opacity:1;stroke-width:3.75;stroke-linejoin:miter;stroke-linecap:butt;fill-opacity:1;stroke-dasharray:none;"
     d="M 442.199 260.395 L 444.147 39.2948 L 34.0902 40.2688 L 36.0382 407.47 C 36.0382 407.47 159.737 500.974 228.892 405.522 C 298.046 310.069 311.682 310.069 336.032 299.355 C 360.382 288.641 442.199 261.369 442.199 260.395 z "
     id="path617"
     transform="matrix(-1.000000,0.000000,0.000000,1.000000,493.8213,8.766060)"
     sodipodi:nodetypes="ccccccc" />
</svg>
