<?xml version="1.0" encoding="UTF-8" standalone="no"?>
<!DOCTYPE svg PUBLIC "-//W3C//DTD SVG 20010904//EN"
"http://www.w3.org/TR/2001/REC-SVG-20010904/DTD/svg10.dtd">
<!-- Created with Inkscape (http://www.inkscape.org/) -->
<svg
   id="svg548"
   sodipodi:version="0.32"
   width="400pt"
   height="400pt"
   sodipodi:docbase="/var/www/html/svg_gallery/svg/flowcharts"
   sodipodi:docname="fc28.svg"
   xmlns="http://www.w3.org/2000/svg"
   xmlns:sodipodi="http://sodipodi.sourceforge.net/DTD/sodipodi-0.dtd"
   xmlns:inkscape="http://www.inkscape.org/namespaces/inkscape"
   xmlns:xlink="http://www.w3.org/1999/xlink"
   inkscape:version="0.37">
  <defs
     id="defs550" />
  <sodipodi:namedview
     id="base"
     showgrid="true"
     inkscape:zoom="0.77250000"
     inkscape:cx="200.000000"
     inkscape:cy="200.000000"
     inkscape:window-width="400"
     inkscape:window-height="500"
     inkscape:window-x="0"
     inkscape:window-y="24" />
  <path
     style="fill:#000000;fill-rule:evenodd;stroke:none;stroke-opacity:1;stroke-width:3.75;stroke-linejoin:miter;stroke-linecap:butt;fill-opacity:0.25;stroke-dasharray:none;"
     d="M 56.131141 84.052174 L 58.079141 350.93007 C 58.079141 350.93007 136.97394 404.50007 278.20494 390.86407 C 406.77394 401.57807 429.17594 404.50007 466.18794 437.61707 C 467.16194 438.59107 467.16194 188.27107 467.16194 188.27107 C 467.16194 188.27107 396.05994 150.28407 284.04894 151.25807 C 172.03794 152.23307 172.03794 161.97307 56.131141 84.052174 z "
     id="path1620"
     sodipodi:nodetypes="ccccccc" />
  <path
     style="fill:#ffffff;fill-rule:evenodd;stroke:black;stroke-opacity:1;stroke-width:3.75;stroke-linejoin:miter;stroke-linecap:butt;fill-opacity:1;stroke-dasharray:none;"
     d="M 33.1162 74.3591 L 35.0642 341.237 C 35.0642 341.237 113.959 394.807 255.19 381.171 C 383.759 391.885 406.161 394.807 443.173 427.924 C 444.147 428.898 444.147 178.578 444.147 178.578 C 444.147 178.578 373.045 140.591 261.034 141.565 C 149.023 142.54 149.023 152.28 33.1162 74.3591 z "
     id="path619"
     sodipodi:nodetypes="ccccccc"
     transform="translate(11.68808,-4.870033)" />
</svg>
